<ttFont>
          <CharString index="0">
            rmoveto
            281.00999450683594 -1 -53 -420.99000549316406 rlineto
            -43 -113.99000549316406 -144.02000427246094 -42 -113.99000549316406 hhcurveto
            -277 -99 277.00999450683594 266 -2 hvcurveto
            371 -4 191 409 391 hhcurveto
            181.99000549316406 115.02000427246094 -47 -35 58.99000549316406 hvcurveto
            48 -40 callsubr
            -39 12 rlineto
            69 callgsubr
            -74 callgsubr
            -111 34 -185 hhcurveto
            -414 -328.99000549316406 -370.00999450683594 -548.9900054931641 9.990005493164062 204 callsubr
            139.02000427246094 -333.97999572753906 360 hhcurveto
            157 140 47.97999572753906 30 99.99000549316406 hvcurveto
            54 16 44 13 39 4 82 635 rcurveline
            -430 hlineto
            -15.020004272460938 -121 rlineto
            return
          </CharString>
          <CharString index="1">
            rmoveto
            -7 -59 -6 -60 1 -52 rrcurveto
            -276.00999450683594 5 151 -162.97999572753906 292 hhcurveto
            344 194.99000549316406 171.99000549316406 472 61 hvcurveto
            62 callsubr
            rlineto
            -146.99000549316406 hlineto
            -112 -890 rlineto
            -389.02000427246094 -50 -139 -145 -245 hhcurveto
            -209.99000549316406 -101 121 201.02000427246094 -4 hvcurveto
            -1 57 -12 callsubr
            -30 callsubr
            9.020004272460938 72.00999450683594 115 911.0099945068359 rcurveline
            -150 hlineto
            -119 -937 rlineto
            endchar
          </CharString>
          <CharString index="2">
            rmoveto
            -333 -233.99000549316406 -349 -363 6 hvcurveto
            -291 5 129 -168.97999572753906 249 hhcurveto
            333 227 351.97999572753906 360 -6 hvcurveto
            291 -5.0200042724609375 -121 169 -250 120 callsubr
            -1059 rmoveto
            -168 -82 127 223 -3 hvcurveto
            268 -5 135 328.99000549316406 252.99000549316406 hhcurveto
            172 69 -132 -219 44 callgsubr
            -268 -53 callsubr
            -128 -327.99000549316406 -250 hhcurveto
            endchar
          </CharString>
          <CharString index="3">
            -438 -202 -426 -314 -257 101 -174.97999572753906 216.99000549316406 167.02000427246094 140 117.97999572753906 106 73.99000549316406 hvcurveto
            -48 -299.97999572753906 rlineto
            -192 -34 -113.00999450683594 -108.00999450683594 -183.99000549316406 hhcurveto
            -100 74 callsubr
            23 25 -56 hvcurveto
            2 callgsubr
            -126 rlineto
            -17 40 128 -18 88 hhcurveto
            197 266 100 315.97999572753906 45 hvcurveto
            176 1245 -116 -36 rlineto
            return
          </CharString>
          <CharString index="4">
            -30 -244 -77.99000549316406 -169 -142 -188.99000549316406 131 callgsubr
            -174 rcurveline
            -23.020004272460938 238 -86 786 rlineto
            -163 hlineto
            42 -286 -43.99000549316406 -197 -101 -190.02000427246094 -125.00999450683594 -172.99000549316406 rlinecurve
            -134.99000549316406 -177 -21.020004272460938 237.02000427246094 88 callsubr
            786 rlineto
            -166 hlineto
            117 -786 57 -368 135 -25 callsubr
            150 179.97000122070312 102.00999450683594 116 88 165 63 150 rlinecurve
            111 callgsubr
            -252.99000549316406 57.02000427246094 -368 161 callsubr
            -25 callsubr
            153 174.97999572753906 195.02000427246094 220 -86 callgsubr
            337 19 291 rlinecurve
            return
          </CharString>
          <CharString index="5">
            40.96000671386719 return
          </CharString>
          <CharString index="6">
            rmoveto
            -443 -1105.020004272461 -99 -258.99000549316406 6 callsubr
            268 -109 1096 rlineto
            -144 hlineto
            24 -226.02000427246094 -353.02000427246094 -879 -86 -258.99000549316406 -40 268 -146 1096 224 callgsubr
            231 -1539.990005493164 rlineto
            155 hlineto
            339.99000549316406 859.9700012207031 84.00999450683594 236 18 -236 87 callsubr
            -859.9700012207031 rlineto
            154 hlineto
            647 1539.990005493164 rlineto
            -152 hlineto
            endchar
          </CharString>
          <CharString index="7">
            rmoveto
            -83 -38 callsubr
            -108.00999450683594 13.990005493164062 -80 14 162 1290 rcurveline
            9.009994506835938 65 7 callsubr
            10 69 hhcurveto
            330 128 -159.99000549316406 -364.00999450683594 5 hvcurveto
            4.0099945068359375 -400 -196 -402 -391.99000549316406 -9.020004272460938 rrcurveto
            return
          </CharString>
          <CharString index="8">
            rmoveto
            -123 -66 111 222 272 153 341.02000427246094 302 65 69 -15.020004272460938 -23 51 hvcurveto
            -64 -450.99000549316406 -41 callsubr
            -185 rlineto
            -104.02000427246094 -59 -140 -168 -168 hhcurveto
            endchar
          </CharString>
          <CharString index="9">
            63 callgsubr
            123 -28.020004272460938 -57 57 hvcurveto
            48 116 rlineto
            34 -48 -99.99000549316406 78 callsubr
            -198 hhcurveto
            -263 -200 -145 -251 5 hvcurveto
            -53 callsubr
            -230 182.99000549316406 -122 148 -95.99000549316406 rrcurveto
            156 -101.00999450683594 87 -89 -139 vvcurveto
            -193 -174 96 callgsubr
            -184 return
          </CharString>
          <CharString index="10">
            rmoveto
            -65 callsubr
            -1143.990005493164 -85 callgsubr
            155 -2 callsubr
            -149 hlineto
            return
          </CharString>
          <CharString index="11">
            226 callsubr
            -77 callsubr
            hlineto
            138.02000427246094 179 callgsubr
            20.990005493164062 162 rlineto
            return
          </CharString>
          <CharString index="12">
            rmoveto
            -379.99000549316406 -195 -408 -315 -278 129 -170.97999572753906 243 180 127.02000427246094 112.97999572753906 70 callsubr
            51 hvcurveto
            -23 callsubr
            82 rlineto
            -86 -87 -84.99000549316406 -60.99000549316406 -114.02000427246094 hhcurveto
            -158.99000549316406 -83 109 241 50 callsubr
            71.99000549316406 72 -17 -40 50 hvcurveto
            return
          </CharString>
          <CharString index="13">
            rmoveto
            -76 -584.9900054931641 rlineto
            144.02000427246094 hlineto
            75 584.9900054931641 592 945 rlineto
            -162 hlineto
            -428.00999450683594 -711 -54.99000549316406 -102.02000427246094 -41 103.02000427246094 -261 710 rlineto
            -161 hlineto
            373 -945 rlineto
            endchar
          </CharString>
          <CharString index="14">
            rmoveto
            -211.99000549316406 -44 186 155 7 hvcurveto
            231 12 481.00999450683594 120.02000427246094 331 vvcurveto
            141 -89 109 168 callsubr
            -102.02000427246094 -92 -28 -50 -81 vhcurveto
            68.00999450683594 -111 185 callsubr
            10 -82 217 callsubr
            -250 70 -180.97999572753906 207 165 111.99000549316406 -23 callgsubr
            133 68.02000427246094 hvcurveto
            -156 63 callsubr
            135 callgsubr
            -125.99000549316406 247 callsubr
            hhcurveto
            194 157 122.97999572753906 79.00999450683594 57 hvcurveto
            110 callgsubr
            87 rlineto
            -116 -114.00999450683594 -124.99000549316406 -55 -109.02000427246094 hhcurveto
            -406 339 rmoveto
            -1 -19 1 6 callsubr
            1 53 callsubr
            rrcurveto
            -129 -70 -101.00999450683594 -154 -122 hhcurveto
            -105 -51 107.00999450683594 226 272 153 341.02000427246094 302 68 72 -21.020004272460938 -33 62 hvcurveto
            -127 -130.99000549316406 -76 -197.02000427246094 -6 -222.99000549316406 rrcurveto
            720 265 callgsubr
            rmoveto
            -210 -332.99000549316406 -126 145 callgsubr
            -7 vhcurveto
            228 69 callgsubr
            150 264.99000549316406 225 hhcurveto
            252 callsubr
            hvcurveto
            endchar
          </CharString>
          <CharString index="15">
            14.009994506835938 -56.02000427246094 -65 11 -52 callgsubr
            -77 callgsubr
            return
          </CharString>
          <CharString index="16">
            244 -19 134 892.9799957275391 142 -50.94999694824219 159 callgsubr
            322.36000061035156 152.6300048828125 402 -77 callsubr
            hintmask 10111000
            270.99000549316406 -372 rmoveto
            70 471.97999572753906 19 148 callgsubr
            98 -44.99000549316406 77 -1 rlinecurve
            173 94 -52 callsubr
            77 75 hvcurveto
            -109 -2 57 -46 77 hhcurveto
            120 92.02000427246094 113 callsubr
            21 13.990005493164062 hvcurveto
            8 callgsubr
            85.00999450683594 rlineto
            -46 -6 callgsubr
            110 callgsubr
            -36 -42 hhcurveto
            -35 -12 46 65 10 hvcurveto
            124 915 271 callgsubr
            209 callgsubr
            -843.0200042724609 rlineto
            -75 -59 -129 163 callsubr
            -118.99000549316406 hhcurveto
            -106 -98 53 208 callgsubr
            13.990005493164062 hvcurveto
            hintmask 11011000
            -1 80 564.0200042724609 9.009994506835938 98 callgsubr
            vhcurveto
            128 17 -52 55 -74 hhcurveto
            -127.02000427246094 -86 7 callgsubr
            -27 callgsubr
            -15 hvcurveto
            50 -88 rlineto
            25 25 40 133 callgsubr
            40 hhcurveto
            32 68 callsubr
            -52 -62 109 callsubr
            hvcurveto
            -188 -1265.990005493164 rlineto
            hintmask 10111000
            141 hlineto
            endchar
          </CharString>
          <CharString index="17">
            rmoveto
            158 232 -70 -24 callgsubr
            -144 -211.99000549316406 rlineto
            64 -73.99000549316406 -95.00999450683594 111 callgsubr
            -116 hhcurveto
            -404 -307 -402.99000549316406 -531 9.990005493164062 hvcurveto
            201 callgsubr
            -172 41 -152 98 callgsubr
            -112 -178 -261 rcurveline
            70 -38.99000549316406 160 235.99000549316406 rlineto
            -82 80 106.99000549316406 -47.97999572753906 133.02000427246094 286 callgsubr
            411.9700012207031 521.0099945068359 -9.009994506835938 122 callgsubr
            187 -48 169 -95 116 rrcurveto
            -365 39 rmoveto
            95 75 -31 -59.99000549316406 57 hvcurveto
            -688 -1033.020004272461 -37 86 -41 callsubr
            113 -2 141 rlinecurve
            418 -6 220 366 306.02000427246094 hhcurveto
            -160 -1328 rmoveto
            -110 -86 42 84.00999450683594 -60.99000549316406 hvcurveto
            692.9900054931641 1041 50 7 callgsubr
            25 -126 -88 callsubr
            -162 rlinecurve
            -429.02000427246094 53 callgsubr
            -360 -307.02000427246094 hhcurveto
            endchar
          </CharString>
          <CharString index="18">
            rmoveto
            -122 -68.00999450683594 111 223 256 152 357 311.00999450683594 64 68 -14 -22 52 hvcurveto
            -88.99000549316406 -648.0099945068359 rlineto
            -104 -64 -141 -159 -163 hhcurveto
            endchar
          </CharString>
          <CharString index="19">
            2.9900054931640625 return
          </CharString>
          <CharString index="20">
            507 -100 callgsubr
          </CharString>
          <CharString index="21">
            120.5 601.9900054931641 118.5 572.489990234375 116.50999450683594 return
          </CharString>
          <CharString index="22">
            -17 -116.02000427246094 -42 -266 -17 -127 rrcurveto
            149 hlineto
            18 125.00999450683594 63 callsubr
            267.97999572753906 16.020004272460938 117 rrcurveto
            return
          </CharString>
          <CharString index="23">
            -87 callgsubr
            122.00999450683594 43 -42.02000427246094 275 callsubr
            hintmask 11010110
            850.9799957275391 1863.990005493164 rmoveto
            hintmask 11011010
            -48 callsubr
            hintmask 11010110
            67 callgsubr
            225 callgsubr
            151 -1863.990005493164 rmoveto
            -96 callgsubr
            hintmask 11100110
            -75 callgsubr
            hintmask 11010110
            -540 hlineto
            endchar
          </CharString>
          <CharString index="24">
            153 107 192 149 132 hhcurveto
            105 35 -46.02000427246094 -109 -77 -41 callsubr
            -133 -21.020004272460938 -140.97999572753906 hvcurveto
            return
          </CharString>
          <CharString index="25">
            112.99000549316406 return
          </CharString>
          <CharString index="26">
            -83 callgsubr
            -57 callgsubr
            return
          </CharString>
          <CharString index="27">
            43 387.97999572753906 115.00999450683594 849.0000152587891 135 -40.96000671386719 -102 callsubr
            return
          </CharString>
          <CharString index="28">
            43 1446.0299987792969 -102 callsubr
            return
          </CharString>
          <CharString index="29">
            18 -28 callgsubr
            86 116 125.00999450683594 234 callsubr
            return
          </CharString>
          <CharString index="30">
            147.99000549316406 return
          </CharString>
          <CharString index="31">
            -49.99000549316406 return
          </CharString>
          <CharString index="32">
            66.99000549316406 return
          </CharString>
          <CharString index="33">
            rmoveto
            -60 callsubr
            hintmask 10101100
            -89 callgsubr
            hintmask 01011100
            -68 callgsubr
            hintmask 10011100
            236 callsubr
          </CharString>
          <CharString index="34">
            hhcurveto
            439.00999450683594 202 425.97999572753906 313 258.00999450683594 57 callgsubr
            175 -217 hvcurveto
            -299.00999450683594 -1062.009994506836 rmoveto
            -63 -69 13 22 -51 hvcurveto
            88 656.0200042724609 rlineto
            -5 callgsubr
            63 130 callsubr
            154 163 hhcurveto
            122 68.00999450683594 -110 -224 -257 -151 -355 -312.02000427246094 hvcurveto
            endchar
          </CharString>
          <CharString index="35">
            867.9799957275391 -96 callsubr
            return
          </CharString>
          <CharString index="36">
            39 -504.99000549316406 -82 callsubr
            376.00999450683594 115.97000122070312 946.010009765625 110 return
          </CharString>
          <CharString index="37">
            29 265.00999450683594 rlineto
            -141 175 callgsubr
            306 callsubr
            97 712.9900054931641 rlineto
            return
          </CharString>
          <CharString index="38">
            72.99000549316406 return
          </CharString>
          <CharString index="39">
            -11 callgsubr
            -56 130 callgsubr
            return
          </CharString>
          <CharString index="40">
            -193 -56 callgsubr
            return
          </CharString>
          <CharString index="41">
            rmoveto
            20.990005493164062 -69.97999572753906 rlineto
            970.0200042724609 hlineto
            21 129.99000549316406 -812 109 callsubr
            123.99000549316406 -77 callsubr
            rlineto
            hintmask 10111000
            843 1195.009994506836 rlineto
            hintmask 11011000
            53 callsubr
            66 rlineto
            -903 hlineto
            -16 -128 744 11 -151 -186 -822 -1157.020004272461 rlineto
            endchar
          </CharString>
          <CharString index="42">
            -153.99000549316406 return
          </CharString>
          <CharString index="43">
            24 callsubr
            289.010009765625 -32 callsubr
            -81.00001525878906 119 callsubr
            return
          </CharString>
          <CharString index="44">
            22 -49 -51 4 -51 hhcurveto
            -228 -140 -169 -245 -32 hvcurveto
            -17.979995727539062 -17 callgsubr
            -22.020004272460938 -118.00999450683594 rlineto
            return
          </CharString>
          <CharString index="45">
            rmoveto
            -179 -1419 rlineto
            150 hlineto
            179 1419 443 -55 callsubr
            17 -39 callgsubr
            rlineto
            -1043.990005493164 hlineto
            -17 -120.00999450683594 450.99000549316406 9.009994506835938 rlineto
            return
          </CharString>
          <CharString index="46">
            -62 8 callgsubr
            -33 vhcurveto
            -2 27 callgsubr
            103.02000427246094 166 callsubr
            return
          </CharString>
          <CharString index="47">
            -67 callsubr
            140.99000549316406 hlineto
            134 1072.990005493164 rlineto
            return
          </CharString>
          <CharString index="48">
            202.99000549316406 return
          </CharString>
          <CharString index="49">
            52 callsubr
            -4 39 -41 49 hhcurveto
            -35 callgsubr
            53 52 66 3 hvcurveto
            56 -88 callsubr
            84 callgsubr
            return
          </CharString>
          <CharString index="50">
            rmoveto
            -222.99000549316406 -1634 109 callgsubr
            222 1634 271 callgsubr
            return
          </CharString>
          <CharString index="51">
            -76 callsubr
            -435.02000427246094 -55 -623 -81 -386.99000549316406 -29 -134.97999572753906 -110 -152 return
          </CharString>
          <CharString index="52">
            -9.009994506835938 return
          </CharString>
          <CharString index="53">
            31 -3 54 -82 callgsubr
            28 -1 470 -12 313 420.99000549316406 -7 529 rrcurveto
            return
          </CharString>
          <CharString index="54">
            4.0200042724609375 return
          </CharString>
          <CharString index="55">
            77.99000549316406 return
          </CharString>
          <CharString index="56">
            -54.99000549316406 122 -69 callsubr
            return
          </CharString>
          <CharString index="57">
            43 callsubr
            54 callgsubr
            17 -58 callgsubr
            hhcurveto
            return
          </CharString>
          <CharString index="58">
            -17 115.97000122070312 1328.009994506836 -39 callgsubr
            return
          </CharString>
          <CharString index="59">
            -9 callgsubr
            -205 348 129 callsubr
            return
          </CharString>
          <CharString index="60">
            34 callgsubr
            216.97999572753906 138 192 87 callgsubr
            -48 callgsubr
            hvcurveto
            153 1139 rlineto
            -149 hlineto
            return
          </CharString>
          <CharString index="61">
            -85 callgsubr
            98.02000427246094 721 rlineto
            151 108 167 callgsubr
            146 131 hhcurveto
            104 35 -47 -109.02000427246094 -76.99000549316406 6 callsubr
            -132.02000427246094 -27 callgsubr
            -140.97999572753906 hvcurveto
            return
          </CharString>
          <CharString index="62">
            -5 -41 -60.99000549316406 -465 -29 -219 rrcurveto
            return
          </CharString>
          <CharString index="63">
            -37 callgsubr
            -58 callgsubr
            -74 callgsubr
            return
          </CharString>
          <CharString index="64">
            -19 -201.99000549316406 rlineto
            131 hlineto
            157 1 callsubr
            return
          </CharString>
          <CharString index="65">
            39.02000427246094 return
          </CharString>
          <CharString index="66">
            -19.990005493164062 return
          </CharString>
          <CharString index="67">
            136.99000549316406 return
          </CharString>
          <CharString index="68">
            vstem
            304.97999572753906 281 callsubr
            -208 299 callgsubr
            rlineto
            149 hlineto
            207 134 callsubr
            271 callgsubr
            586 -761 rmoveto
            65 87 38.99000549316406 86 -28 callsubr
            91.00999450683594 rrcurveto
            122 callsubr
            -32 -101 -51 -85 -68 -78 -88 -105 -141 -82 -105 -60 rrcurveto
            1 hlineto
            -1 2 callsubr
            419 -625 rlineto
            173 hlineto
            -420 602.9900054931641 95.00999450683594 47 156 162 callsubr
            93 126 rlinecurve
            return
          </CharString>
          <CharString index="69">
            -1.9900054931640625 return
          </CharString>
          <CharString index="70">
            78.99000549316406 -86 callgsubr
            return
          </CharString>
          <CharString index="71">
            -83 callgsubr
            115.97000122070312 return
          </CharString>
          <CharString index="72">
            -4.0200042724609375 return
          </CharString>
          <CharString index="73">
            -53 -56.02000427246094 vvcurveto
            -95.99000549316406 return
          </CharString>
          <CharString index="74">
            43 1060.0299987792969 -102 callsubr
            return
          </CharString>
          <CharString index="75">
            213.99000549316406 return
          </CharString>
          <CharString index="76">
            0 -26 callgsubr
            return
          </CharString>
          <CharString index="77">
            61.99000549316406 return
          </CharString>
          <CharString index="78">
            -91 callgsubr
            584 hmoveto
            -56 callsubr
            -194 -53 28 -68 rcurveline
            201 34.97999572753906 168 89.00999450683594 82 274 29 123 callgsubr
            -8 callsubr
            689.0099945068359 72 671 rrcurveto
            -151 hlineto
            endchar
          </CharString>
          <CharString index="79">
            8.009994506835938 return
          </CharString>
          <CharString index="80">
            rmoveto
            -146 hlineto
            6 -6 callgsubr
            -27 callgsubr
            -6 callsubr
            -55 callsubr
            -72 rrcurveto
            return
          </CharString>
          <CharString index="81">
            266 5 callsubr
            114.97000122070312 633.010009765625 99.97999572753906 602.0200042724609 113 callgsubr
            -95.99000549316406 112 30 callgsubr
            hintmask 11101000
            1297.979995727539 922.9900054931641 rmoveto
            hintmask 11011000
            31 callsubr
            hintmask 11101000
            -105.99000549316406 -131 -16.020004272460938 -99 hhcurveto
            6 callgsubr
            hlineto
            -88 -698 rlineto
            return
          </CharString>
          <CharString index="82">
            10.020004272460938 return
          </CharString>
          <CharString index="83">
            97.00999450683594 -278 -346 return
          </CharString>
          <CharString index="84">
            -50.02000427246094 return
          </CharString>
          <CharString index="85">
            -1160 -475.00999450683594 rmoveto
            -176 98 -134 183 251.99000549316406 76 callgsubr
            -238.97999572753906 -171 -212.99000549316406 -212 vhcurveto
            560 124 rmoveto
            204 callgsubr
            -18 callgsubr
            vhcurveto
            return
          </CharString>
          <CharString index="86">
            rmoveto
            -67 callsubr
            return
          </CharString>
          <CharString index="87">
            hlineto
            -92 -732.0200042724609 308 callsubr
            -4.970001220703125 -35 callsubr
            45 hvcurveto
            31 -82 callgsubr
            54 -3 28 2 callsubr
            470 -12 313 420.97999572753906 124 callsubr
            14.009994506835938 76 607 rcurveline
            return
          </CharString>
          <CharString index="88">
            83 callgsubr
            hintmask 10101000
            -10 callsubr
            hintmask 11001000
            19 callsubr
            hintmask 10011000
            33 158 rlineto
            hintmask 11001000
            11 -12 69 callsubr
            2 -20 hhcurveto
            endchar
          </CharString>
          <CharString index="89">
            -75 callsubr
            4 hvcurveto
            54 3 -36 40 return
          </CharString>
          <CharString index="90">
            vstem
            506 -22 rmoveto
            130 callsubr
            -86.02000427246094 139 88 callsubr
            212 callsubr
            vhcurveto
            -93 -87 -35 callsubr
            98 callsubr
            rlineto
            70 -50 32 -95.99000549316406 -79.99000549316406 vvcurveto
            -197 -122 -130 185 callgsubr
            -42 245 callgsubr
            -16 277 callsubr
            149 286 vvcurveto
            return
          </CharString>
          <CharString index="91">
            -1225.009994506836 rmoveto
            -263 -8 40 293 -154.99000549316406 -18 -39 -280 -404.00999450683594 -12 583 754.0099945068359 -101.00999450683594 12 callgsubr
            hlineto
            -610 -867 28 -74 rlineto
            525 hlineto
            -49 -347.99000549316406 rlineto
            156 hlineto
            47 347.99000549316406 rlineto
            265.00999450683594 hlineto
            15 134 rlineto
            endchar
          </CharString>
          <CharString index="92">
            -56.96000671386719 -102 callsubr
            return
          </CharString>
          <CharString index="93">
            rmoveto
            54 -25 40 -79 -103.99000549316406 vvcurveto
            -162 70 callgsubr
            -120.00999450683594 -107.99000549316406 -53 245 callgsubr
            -17.979995727539062 73 callgsubr
            -74 callgsubr
            rlineto
            184 71 126.00999450683594 176 222.99000549316406 vvcurveto
            214 callsubr
            -36 135 -132.02000427246094 59 vhcurveto
            -79 -97 -6 -41 rlineto
            endchar
          </CharString>
          <CharString index="94">
            -13.990005493164062 return
          </CharString>
          <CharString index="95">
            3.9900054931640625 return
          </CharString>
          <CharString index="96">
            -424 629.9799957275391 95 callgsubr
            hstem
            242.99000549316406 210 vstem
            363.99000549316406 849.9799957275391 rmoveto
            -73.02000427246094 -46.97999572753906 -58 -70 -1 hvcurveto
            -57 -1 40 -35 50 hhcurveto
            -12 callgsubr
            46 249 callgsubr
            83.00999450683594 65 callgsubr
          </CharString>
          <CharString index="97">
            163 callgsubr
            251 rlineto
            -140 hlineto
            -152.99000549316406 173 callgsubr
            91 680 rlineto
            return
          </CharString>
          <CharString index="98">
            -34 callsubr
            -39 -62 return
          </CharString>
          <CharString index="99">
            89.99000549316406 return
          </CharString>
          <CharString index="100">
            -45.02000427246094 return
          </CharString>
          <CharString index="101">
            -136.99000549316406 return
          </CharString>
          <CharString index="102">
            1020.9900054931641 return
          </CharString>
          <CharString index="103">
            660 -9.990005493164062 175.97999572753906 1323.0400085449219 -102 callsubr
            return
          </CharString>
          <CharString index="104">
            1652.979995727539 rmoveto
            101 callgsubr
            return
          </CharString>
          <CharString index="105">
            1143.990005493164 rlineto
            return
          </CharString>
          <CharString index="106">
            -83 callgsubr
            114.97000122070312 -98.97999572753906 return
          </CharString>
          <CharString index="107">
            104 -308 -400.02000427246094 return
          </CharString>
          <CharString index="108">
            1155.990005493164 return
          </CharString>
          <CharString index="109">
            -0.9900054931640625 return
          </CharString>
          <CharString index="110">
            -20 -207.99000549316406 rlineto
            132 hlineto
            223.99000549316406 134 callsubr
            rlineto
            return
          </CharString>
          <CharString index="111">
            523 -14 43 -43 130 983.0299987792969 159 callgsubr
            1433.979995727539 147 hintmask 10110000
            return
          </CharString>
          <CharString index="112">
            -14.990005493164062 return
          </CharString>
          <CharString index="113">
            -20.009994506835938 return
          </CharString>
          <CharString index="114">
            96.00999450683594 return
          </CharString>
          <CharString index="115">
            613.9900054931641 return
          </CharString>
          <CharString index="116">
            -11 -77 297.97999572753906 -17 -805.9900054931641 -1436 rlineto
            161.99000549316406 hlineto
            252 459 rlineto
            519 hlineto
            -58 -459 293 callsubr
            -737.0200042724609 -13 209 callsubr
            238 callgsubr
            -474.99000549316406 -6 rlineto
            return
          </CharString>
          <CharString index="117">
            72 callsubr
            123 callgsubr
            -11 hvcurveto
            -38 callsubr
            24 callgsubr
            return
          </CharString>
          <CharString index="118">
            -171 -181.99000549316406 -131 -150 -118 hvcurveto
            return
          </CharString>
          <CharString index="119">
            rmoveto
            -88 -701.0099945068359 rlineto
            -726 hlineto
            88 701.0099945068359 rlineto
            -150 32 callgsubr
            150 hlineto
            -8 callsubr
            713.9900054931641 rlineto
            726.0200042724609 hlineto
            7 callgsubr
            -713.9900054931641 rlineto
            151 hlineto
            192 1530 224 callgsubr
            endchar
          </CharString>
          <CharString index="120">
            -17 -116.02000427246094 -43 -268.97999572753906 -17 -127 rrcurveto
            149 hlineto
            18.990005493164062 148 callsubr
            43 271 16 117 rrcurveto
            return
          </CharString>
          <CharString index="121">
            61 -29 callgsubr
            return
          </CharString>
          <CharString index="122">
            rmoveto
            -167 -139 -114.00999450683594 -103 -75.02000427246094 hvcurveto
            35 208 58 490 rlineto
            -140.99000549316406 hlineto
            -218 -1635 return
          </CharString>
          <CharString index="123">
            267 -1 callsubr
            43 1390.979995727539 273 callgsubr
            return
          </CharString>
          <CharString index="124">
            31 5 callsubr
            119.97000122070312 1315 126.00999450683594 return
          </CharString>
          <CharString index="125">
            132 callgsubr
            103.02000427246094 230 callgsubr
            99.99000549316406 7 75.02000427246094 rrcurveto
            122 -5 callgsubr
            145 105 103.02000427246094 hhcurveto
            -5 callgsubr
            35 -47 -108.00999450683594 -82 -18 -129 -22 -139.97999572753906 hvcurveto
            return
          </CharString>
          <CharString index="126">
            191 77 162 127 110 hhcurveto
            47 26.009994506835938 -4 -55 callsubr
            19 hvcurveto
            return
          </CharString>
          <CharString index="127">
            52 callgsubr
            -756 hlineto
            return
          </CharString>
          <CharString index="128">
            -29 callgsubr
            -52 callgsubr
            130 callgsubr
            -3 hvcurveto
            -57 -4 39 -42 return
          </CharString>
          <CharString index="129">
            125.5 1282.009994506836 122.49000549316406 return
          </CharString>
          <CharString index="130">
            -145.02000427246094 -152.99000549316406 54 40 -38 return
          </CharString>
          <CharString index="131">
            0 43 977.9799957275391 119 return
          </CharString>
          <CharString index="132">
            -19 66 rlineto
            -903 hlineto
            -16 -128 744 11 -151 -186 -822.0099945068359 -1157.020004272461 69 callgsubr
            -69.97999572753906 rlineto
            970 hlineto
            20.990005493164062 129.99000549316406 -811.9900054931641 109 callsubr
            rlineto
            return
          </CharString>
          <CharString index="133">
            hlineto
            -69 callsubr
            583 rlineto
            9.009994506835938 65 7 callsubr
            10 69 hhcurveto
            330 128 -160 -363.99000549316406 5 hvcurveto
            4.0099945068359375 -400 -196 -402 -391.99000549316406 -55 callsubr
            rrcurveto
            endchar
          </CharString>
          <CharString index="134">
            1797.979995727539 rmoveto
            108 callgsubr
            -48 callgsubr
            return
          </CharString>
          <CharString index="135">
            181 callsubr
            -48 callgsubr
            vhcurveto
            -39 12 callgsubr
            return
          </CharString>
          <CharString index="136">
            hvcurveto
            -18 -17 callgsubr
            -22 -118.00999450683594 rlineto
            return
          </CharString>
          <CharString index="137">
            61 53 52 66 44 callgsubr
            56 return
          </CharString>
          <CharString index="138">
            371 -5 -164 253 -407 hhcurveto
            return
          </CharString>
          <CharString index="139">
            150 callsubr
            62 78 callsubr
            52 60 callgsubr
            309 callgsubr
            62 callgsubr
            147 callgsubr
            -52 -50 242 callgsubr
            return
          </CharString>
          <CharString index="140">
            90 callgsubr
            5 114 rlineto
            return
          </CharString>
          <CharString index="141">
            22 205 rlineto
            -134 hlineto
            -219 -1654.990005493164 rlineto
            148 hlineto
            69 523.9799957275391 174 callgsubr
            1 callgsubr
            64 -11 53 hhcurveto
            439.00999450683594 202 421.99000549316406 316.97999572753906 hvcurveto
            return
          </CharString>
          <CharString index="142">
            221 callgsubr
            59 callgsubr
            197 callgsubr
            return
          </CharString>
          <CharString index="143">
            -70 -76 callsubr
            -100 -43 -28 -41 callgsubr
            9.009994506835938 -17 vhcurveto
            return
          </CharString>
          <CharString index="144">
            -36 40 -59 hhcurveto
            -76 callsubr
            -61 -51 -65 return
          </CharString>
          <CharString index="145">
            41 callsubr
            138 -5 callsubr
            rlineto
            250 hlineto
            9.009994506835938 119.00999450683594 rlineto
            -243.02000427246094 hlineto
            21.009994506835938 162 rlineto
            return
          </CharString>
          <CharString index="146">
            156 711.9799957275391 121 hstem
            95 callgsubr
            850.9799957275391 vstem
            233.97999572753906 832.9799957275391 rmoveto
            -13 callsubr
            -121 rlineto
            837 hlineto
            13.990005493164062 121 rlineto
            -837 hlineto
            endchar
          </CharString>
          <CharString index="147">
            66 callgsubr
            40 216 callsubr
            50 hhcurveto
            -69 callsubr
            46 249 callgsubr
            82.99000549316406 2 hvcurveto
            52 1 -25 -4 callgsubr
            -65 hhcurveto
            endchar
          </CharString>
          <CharString index="148">
            152 hlineto
            695.0099945068359 hmoveto
            -137 196 callgsubr
            return
          </CharString>
          <CharString index="149">
            1527.990005493164 81 callsubr
            return
          </CharString>
          <CharString index="150">
            19.009994506835938 -63 return
          </CharString>
          <CharString index="151">
            -21 callsubr
            150 hlineto
            92 724.9900054931641 512 -12 10 130 -507.99000549316406 -8 -69 callsubr
            582 632.0099945068359 -7 11 -39 callgsubr
            rlineto
            -779 hlineto
            endchar
          </CharString>
          <CharString index="152">
            52.97999572753906 -203 377.02000427246094 rlineto
            return
          </CharString>
          <CharString index="153">
            122.97999572753906 24.009994506835938 124 hstemhm
            return
          </CharString>
          <CharString index="154">
            0 43 21 93.97999572753906 547 94 -54 94 547 94 9.050003051757812 159 callgsubr
            56 callgsubr
            123 437 129.99000549316406 145.99998474121094 123 437 130 return
          </CharString>
          <CharString index="155">
            155 callsubr
            -333 -279 -249 279 return
          </CharString>
          <CharString index="156">
            59 157 -40 callsubr
            62 104 rlinecurve
            return
          </CharString>
          <CharString index="157">
            320.97999572753906 192 275 217 return
          </CharString>
          <CharString index="158">
            -36 62 callgsubr
            -57 return
          </CharString>
          <CharString index="159">
            1804.979995727539 rmoveto
            -57 return
          </CharString>
          <CharString index="160">
            -18.990005493164062 return
          </CharString>
          <CharString index="161">
            -146.99000549316406 -151.02000427246094 -104 213 callsubr
            163 callsubr
            hvcurveto
            154 -11 -69 76 -144.02000427246094 hhcurveto
            -157 -164.99000549316406 -124 -145 -109.02000427246094 hvcurveto
            return
          </CharString>
          <CharString index="162">
            514 -83 callgsubr
            288 callsubr
            496.010009765625 110 hstem
            81 -86 callgsubr
            447.989990234375 156.99000549316406 563.0099945068359 149 vstem
            return
          </CharString>
          <CharString index="163">
            -15.009994506835938 return
          </CharString>
          <CharString index="164">
            -38 callsubr
            111 23 -145 -86 callgsubr
            hhcurveto
            106 110 80 94 255 callsubr
            -30 -43.99000549316406 -76 -80.02000427246094 hhcurveto
            return
          </CharString>
          <CharString index="165">
            -38 callsubr
            111 23 -145 154 hhcurveto
            106 110 80 94 return
          </CharString>
          <CharString index="166">
            -50.02000427246094 242 callgsubr
            return
          </CharString>
          <CharString index="167">
            hstemhm
            -82 callsubr
            152 return
          </CharString>
          <CharString index="168">
            hstemhm
            791.9799957275391 149 -32 -13 callgsubr
            return
          </CharString>
          <CharString index="169">
            -76 callgsubr
            903 return
          </CharString>
          <CharString index="170">
            42.99000549316406 return
          </CharString>
          <CharString index="171">
            192 1239.979995727539 rmoveto
            245 callsubr
            86 -139 134 callgsubr
            167 callsubr
            vhcurveto
            93 87 -53 callsubr
            31 rlineto
            -70 50 -32 281 callgsubr
            vvcurveto
            return
          </CharString>
          <CharString index="172">
            -98 -35 148 -144.02000427246094 hhcurveto
            -105.99000549316406 112 callsubr
            -83 -83 -42 hvcurveto
            return
          </CharString>
          <CharString index="173">
            146 callgsubr
            rcurveline
            92 callgsubr
            rlineto
            return
          </CharString>
          <CharString index="174">
            -131 57 callgsubr
            51 30 -42 return
          </CharString>
          <CharString index="175">
            1.9900054931640625 return
          </CharString>
          <CharString index="176">
            -31.990005493164062 return
          </CharString>
          <CharString index="177">
            65.99000549316406 return
          </CharString>
          <CharString index="178">
            -23 callgsubr
            99 207 callgsubr
            144 120.02000427246094 hhcurveto
            100 35 -47 -109 -77 6 callsubr
            -133 -27 callgsubr
            -140.97999572753906 hvcurveto
            return
          </CharString>
          <CharString index="179">
            -66 38 callgsubr
            return
          </CharString>
          <CharString index="180">
            -58.99000549316406 return
          </CharString>
          <CharString index="181">
            -89.99000549316406 return
          </CharString>
          <CharString index="182">
            686 -380 rmoveto
            -239 -171 -213 -212 -176 98 -133.97999572753906 183 252 76 callgsubr
            hvcurveto
            return
          </CharString>
          <CharString index="183">
            -63 -61 callgsubr
            return
          </CharString>
          <CharString index="184">
            1612.979995727539 rmoveto
            242 85 callgsubr
            199 callgsubr
            48 callsubr
            return
          </CharString>
          <CharString index="185">
            51.02000427246094 return
          </CharString>
          <CharString index="186">
            -57 -35 callsubr
            -42 callsubr
            -42 51 hhcurveto
            -43 callgsubr
            return
          </CharString>
          <CharString index="187">
            130 -14 63 callgsubr
            212 callgsubr
            43 695.9700012207031 88 callgsubr
            594.010009765625 105 -15 callsubr
            return
          </CharString>
          <CharString index="188">
            rmoveto
            -57 -4 194 callgsubr
            return
          </CharString>
          <CharString index="189">
            201.99000549316406 217.00999450683594 -59 callsubr
            return
          </CharString>
          <CharString index="190">
            51 callsubr
            -52 -50 -65 return
          </CharString>
          <CharString index="191">
            -114 rlineto
            508.99000549316406 hlineto
            return
          </CharString>
          <CharString index="192">
            176.989990234375 213 return
          </CharString>
          <CharString index="193">
            49.99000549316406 return
          </CharString>
          <CharString index="194">
            88.99000549316406 return
          </CharString>
          <CharString index="195">
            -83.99000549316406 return
          </CharString>
          <CharString index="196">
            17.990005493164062 -28 callgsubr
            86.02000427246094 116 148 callsubr
            234 callsubr
            return
          </CharString>
          <CharString index="197">
            -83 callgsubr
            -76 callgsubr
            return
          </CharString>
          <CharString index="198">
            -24 callsubr
            rlineto
            return
          </CharString>
          <CharString index="199">
            hstem
            -86 callgsubr
            154 return
          </CharString>
          <CharString index="200">
            hvcurveto
            hintmask 01111000
            -40 -86 rlineto
            hintmask 10111000
            -19.009994506835938 145 callsubr
            46 53 callsubr
            65 hhcurveto
            217 138 192 87 callgsubr
            return
          </CharString>
          <CharString index="201">
            vstem
            87 callgsubr
            1687 rmoveto
            -88 -721.0200042724609 rlineto
            108.02000427246094 hlineto
            -86 callgsubr
            721.0200042724609 rlineto
            -174 hlineto
            return
          </CharString>
          <CharString index="202">
            -115.02000427246094 return
          </CharString>
          <CharString index="203">
            159.99000549316406 return
          </CharString>
          <CharString index="204">
            -147.99000549316406 return
          </CharString>
          <CharString index="205">
            -30.990005493164062 return
          </CharString>
          <CharString index="206">
            22 -49 -51 4 -51 hhcurveto
            -228 -140 -169 -245 69 callsubr
            29 callsubr
            return
          </CharString>
          <CharString index="207">
            -17 -116.02000427246094 -43 -266 -17 -127 rrcurveto
            79 callgsubr
            hlineto
            17.990005493164062 125.00999450683594 43 267 16 117 rrcurveto
            return
          </CharString>
          <CharString index="208">
            -559.9900054931641 43 return
          </CharString>
          <CharString index="209">
            -3.0200042724609375 hvcurveto
            return
          </CharString>
          <CharString index="210">
            1902.979995727539 rmoveto
            return
          </CharString>
          <CharString index="211">
            -264.99000549316406 159 callsubr
            -204.99000549316406 348 rlineto
            -136 253 callsubr
            return
          </CharString>
          <CharString index="212">
            398.99000549316406 1777.990005493164 rmoveto
            -163 -1290 rlineto
            97 callgsubr
            hlineto
            215 1290 rlineto
            -171.99000549316406 hlineto
            return
          </CharString>
          <CharString index="213">
            -371 -83 callgsubr
            64 callgsubr
            206 callgsubr
            return
          </CharString>
          <CharString index="214">
            60 53 119 callgsubr
            return
          </CharString>
          <CharString index="215">
            52 53 -75 callsubr
            return
          </CharString>
          <CharString index="216">
            -8.990005493164062 return
          </CharString>
          <CharString index="217">
            -41.99000549316406 return
          </CharString>
          <CharString index="218">
            195.99000549316406 return
          </CharString>
          <CharString index="219">
            -119.00999450683594 return
          </CharString>
          <CharString index="220">
            108.99000549316406 return
          </CharString>
          <CharString index="221">
            52 -514.9799957275391 43 455.989990234375 194 callsubr
            -15 callsubr
            return
          </CharString>
          <CharString index="222">
            188 callsubr
            3.9900054931640625 160 callgsubr
            return
          </CharString>
          <CharString index="223">
            hstemhm
            792.9799957275391 149 -30.989990234375 -13 callgsubr
            return
          </CharString>
          <CharString index="224">
            -56.02000427246094 -52 -49.99000549316406 242 callgsubr
            return
          </CharString>
          <CharString index="225">
            0 138 callsubr
            return
          </CharString>
          <CharString index="226">
            47 callgsubr
            hstemhm
            return
          </CharString>
          <CharString index="227">
            hhcurveto
            -65 callsubr
            return
          </CharString>
          <CharString index="228">
            -32 callsubr
            hstem
            return
          </CharString>
          <CharString index="229">
            75 callgsubr
            hlineto
            return
          </CharString>
          <CharString index="230">
            -103.02000427246094 return
          </CharString>
          <CharString index="231">
            -7 529 rrcurveto
            -739.9900054931641 -823.0099945068359 rmoveto
            -83 -38 callsubr
            -108.00999450683594 13.990005493164062 -80 return
          </CharString>
          <CharString index="232">
            335.00999450683594 165 callgsubr
            return
          </CharString>
          <CharString index="233">
            1361 1530 rmoveto
            -947.0200042724609 -56 callgsubr
            123 hlineto
            947 1530 rlineto
            -122.99000549316406 hlineto
            return
          </CharString>
          <CharString index="234">
            78.99000549316406 92.02000427246094 return
          </CharString>
          <CharString index="235">
            -294.00999450683594 397 -115 -104 return
          </CharString>
          <CharString index="236">
            rlineto
            131 callgsubr
            hlineto
            return
          </CharString>
          <CharString index="237">
            141.99000549316406 return
          </CharString>
          <CharString index="238">
            0.9900054931640625 return
          </CharString>
          <CharString index="239">
            -293.99000549316406 return
          </CharString>
          <CharString index="240">
            48.99000549316406 return
          </CharString>
          <CharString index="241">
            1636.990005493164 return
          </CharString>
          <CharString index="242">
            -35.99000549316406 return
          </CharString>
          <CharString index="243">
            -374.99000549316406 rlineto
            -413 -2 rmoveto
            71.99000549316406 -76 callsubr
            106 76 181 151 54 109 rlinecurve
            return
          </CharString>
          <CharString index="244">
            -534 -2 callgsubr
            1575.009994506836 159 callgsubr
            -243.99000549316406 return
          </CharString>
          <CharString index="245">
            128 1361.0299987792969 -102 callsubr
            return
          </CharString>
          <CharString index="246">
            -102 callsubr
            hstem
            return
          </CharString>
          <CharString index="247">
            -57 -40 callgsubr
            return
          </CharString>
          <CharString index="248">
            38 callgsubr
            95 -11 hvcurveto
            -2 10 2 callsubr
            12 -28 callsubr
            vvcurveto
            return
          </CharString>
          <CharString index="249">
            214 callgsubr
            -104 -16 -98 hhcurveto
            -68 32 callgsubr
            70 hlineto
            198 callgsubr
            119 -14 77 hhcurveto
            return
          </CharString>
          <CharString index="250">
            74 callsubr
            250 callgsubr
            173.02000427246094 96 callsubr
            80 186 157 -104 94 -166 return
          </CharString>
          <CharString index="251">
            294 callgsubr
            -118.99000549316406 -83 -83 -42 hvcurveto
            return
          </CharString>
          <CharString index="252">
            24.990005493164062 return
          </CharString>
          <CharString index="253">
            -65.99000549316406 return
          </CharString>
          <CharString index="254">
            -25.990005493164062 return
          </CharString>
          <CharString index="255">
            124.99000549316406 return
          </CharString>
          <CharString index="256">
            106.99000549316406 rlineto
            -142 84.00999450683594 -198 269.97999572753906 308 vvcurveto
            435.02000427246094 return
          </CharString>
          <CharString index="257">
            40 -41 223 callsubr
            return
          </CharString>
          <CharString index="258">
            -44 callsubr
            rlineto
            return
          </CharString>
          <CharString index="259">
            162 callgsubr
            253 rlineto
            -141 hlineto
            -155 306 callsubr
            98 723 rlineto
            return
          </CharString>
          <CharString index="260">
            600.9900054931641 535.9799957275391 rmoveto
            -29 -240.99000549316406 rlineto
            138 hlineto
            29 240.99000549316406 return
          </CharString>
          <CharString index="261">
            43 1371.490005493164 115.5 return
          </CharString>
          <CharString index="262">
            87 callgsubr
            76 callsubr
            return
          </CharString>
          <CharString index="263">
            -40 49 hhcurveto
            220 callsubr
            return
          </CharString>
          <CharString index="264">
            190 127 161 callgsubr
            146 return
          </CharString>
          <CharString index="265">
            -99 -35 144 -146 hhcurveto
            return
          </CharString>
          <CharString index="266">
            -69 callsubr
            53 return
          </CharString>
          <CharString index="267">
            64 callgsubr
            rlineto
            return
          </CharString>
          <CharString index="268">
            135.99000549316406 return
          </CharString>
          <CharString index="269">
            97.02000427246094 return
          </CharString>
          <CharString index="270">
            -106.99000549316406 return
          </CharString>
          <CharString index="271">
            85.00999450683594 -452 377 556.0099945068359 383 -29 89 -695.0099945068359 -415 rlineto
            return
          </CharString>
          <CharString index="272">
            -62 -502 122 246 callgsubr
            -7 callgsubr
            1101.0299987792969 -102 callsubr
            return
          </CharString>
          <CharString index="273">
            112.99000549316406 196 callsubr
            return
          </CharString>
          <CharString index="274">
            -33.02000427246094 return
          </CharString>
          <CharString index="275">
            -189.99000549316406 return
          </CharString>
          <CharString index="276">
            299.00999450683594 return
          </CharString>
          <CharString index="277">
            -25 186 callgsubr
            -30 12 233 callgsubr
            return
          </CharString>
          <CharString index="278">
            97 callgsubr
            388.989990234375 -39 callgsubr
            hstem
            98.97000122070312 898 vstem
            return
          </CharString>
          <CharString index="279">
            -63.02000427246094 -61 callgsubr
            return
          </CharString>
          <CharString index="280">
            1 callsubr
            rmoveto
            return
          </CharString>
          <CharString index="281">
            97 callsubr
            hhcurveto
            return
          </CharString>
          <CharString index="282">
            1428.990005493164 rmoveto
            return
          </CharString>
          <CharString index="283">
            -322 rmoveto
            -51 289 callgsubr
            hvcurveto
            hintmask 10111100
            93.99000549316406 return
          </CharString>
          <CharString index="284">
            260 callgsubr
            207 callgsubr
            142.99000549316406 return
          </CharString>
          <CharString index="285">
            273 callgsubr
            30 callgsubr
            return
          </CharString>
          <CharString index="286">
            84 callsubr
            5.0200042724609375 114 rlineto
            -510.02000427246094 hlineto
            return
          </CharString>
          <CharString index="287">
            -56 59 callsubr
            return
          </CharString>
          <CharString index="288">
            116 86 73 callgsubr
            -42 callsubr
            return
          </CharString>
          <CharString index="289">
            -80 callgsubr
            hstem
            return
          </CharString>
          <CharString index="290">
            hstemhm
            121 1211.979995727539 return
          </CharString>
          <CharString index="291">
            -26.990005493164062 return
          </CharString>
          <CharString index="292">
            -90.99000549316406 return
          </CharString>
          <CharString index="293">
            -7.9900054931640625 return
          </CharString>
          <CharString index="294">
            -26.009994506835938 return
          </CharString>
          <CharString index="295">
            228 callsubr
            169 callgsubr
            205 callsubr
            return
          </CharString>
          <CharString index="296">
            197 122 130 79.00999450683594 42 vhcurveto
            68 callsubr
            16 -58 85 rlineto
            return
          </CharString>
          <CharString index="297">
            173 96 callsubr
            87 186 158 -104 92 -165.99000549316406 -158 return
          </CharString>
          <CharString index="298">
            1653.990005493164 rmoveto
            237 callsubr
            return
          </CharString>
          <CharString index="299">
            -377 -556.0099945068359 -383 29 -89 695.0099945068359 415 rlineto
            endchar
          </CharString>
          <CharString index="300">
            58 -99 190 -184 113 callgsubr
            -65 return
          </CharString>
          <CharString index="301">
            109.97000122070312 946.010009765625 116 return
          </CharString>
          <CharString index="302">
            146 callsubr
            -147 -148 hhcurveto
            -135 return
          </CharString>
          <CharString index="303">
            165 vvcurveto
            92 -43 93 -76 25 vhcurveto
            return
          </CharString>
          <CharString index="304">
            -12 callsubr
            hvcurveto
            return
          </CharString>
          <CharString index="305">
            -4.0099945068359375 return
          </CharString>
          <CharString index="306">
            188.99000549316406 return
          </CharString>
          <CharString index="307">
            12.990005493164062 return
          </CharString>
          <CharString index="308">
            53 -203 377 rlineto
            -137 hlineto
            -343 -375.99000549316406 59 -59 333 return
          </CharString>
          <CharString index="309">
            hlineto
            -13 callsubr
            -121 rlineto
            224.99000549316406 hlineto
            161 5 rlineto
            return
          </CharString>
          <CharString index="310">
            hstemhm
            186.97999572753906 -13 callgsubr
            return
          </CharString>
          <CharString index="311">
            hvcurveto
            -310.00999450683594 5 return
          </CharString>
          <CharString index="312">
            51 244 callsubr
            return
          </CharString>
          <CharString index="313">
            90.99000549316406 return
          </CharString>
          <CharString index="314">
            69.02000427246094 return
          </CharString>
          <CharString index="315">
            742.9900054931641 return
          </CharString>
          <CharString index="316">
            78.00999450683594 return
          </CharString>
          <CharString index="317">
            138.99000549316406 return
          </CharString>
          <CharString index="318">
            241.99000549316406 return
          </CharString>
          <CharString index="319">
            32.99000549316406 return
          </CharString>
          <CharString index="320">
            -126.02000427246094 return
          </CharString>
          <CharString index="321">
            101.99000549316406 return
          </CharString>
          <CharString index="322">
            150.50999450683594 return
          </CharString>
          <CharString index="323">
            -34.970001220703125 return
          </CharString>
          <CharString index="324">
            hhcurveto
            -439.00999450683594 -193.99000549316406 -428.00999450683594 -313 return
          </CharString>
          <CharString index="325">
            238 -319 237 callgsubr
            return
          </CharString>
          <CharString index="326">
            282 callgsubr
            -3 hvcurveto
            return
          </CharString>
          <CharString index="327">
            62 205 callgsubr
            return
          </CharString>
          <CharString index="328">
            -1020.9900054931641 rlineto
            return
          </CharString>
          <CharString index="329">
            127 165 146 return
          </CharString>
          <CharString index="330">
            86 callsubr
            hhcurveto
            return
          </CharString>
          <CharString index="331">
            hlineto
            155 -2 callsubr
            -149 175 callgsubr
            return
          </CharString>
          <CharString index="332">
            112 hstem
            51.99000549316406 104 425.989990234375 99 vstem
            52 return
          </CharString>
          <CharString index="333">
            278 callsubr
            288 callgsubr
            return
          </CharString>
          <CharString index="334">
            222 callsubr
            16 vhcurveto
            2 11 return
          </CharString>
          <CharString index="335">
            -57 -4 150 callsubr
            return
          </CharString>
          <CharString index="336">
            -85.00999450683594 return
          </CharString>
          <CharString index="337">
            30.990005493164062 return
          </CharString>
          <CharString index="338">
            -274.97999572753906 return
          </CharString>
          <CharString index="339">
            hlineto
            hintmask 11011000
            48 379 224 callgsubr
            hintmask 11101000
            -48 -379 rlineto
            return
          </CharString>
          <CharString index="340">
            1189.990005493164 591.9900054931641 hstem
            300.99000549316406 return
          </CharString>
          <CharString index="341">
            1 154 callgsubr
            return
          </CharString>
          <CharString index="342">
            670.9900054931641 rmoveto
            -16 -120 583 -399.00999450683594 return
          </CharString>
          <CharString index="343">
            176 callgsubr
            endchar
          </CharString>
          <CharString index="344">
            57 -51 164 callgsubr
            59 157 -40 callsubr
            return
          </CharString>
          <CharString index="345">
            288 callsubr
            493 113 return
          </CharString>
          <CharString index="346">
            hlineto
            -343 -376.00999450683594 rlineto
            return
          </CharString>
          <CharString index="347">
            120 callgsubr
            vstem
            return
          </CharString>
          <CharString index="348">
            -56 callgsubr
            151 hlineto
            return
          </CharString>
          <CharString index="349">
            hvcurveto
            54 -88 callsubr
            return
          </CharString>
          <CharString index="350">
            1409.990005493164 rmoveto
            return
          </CharString>
          <CharString index="351">
            52 -61 callgsubr
            return
          </CharString>
          <CharString index="352">
            -141.99000549316406 return
          </CharString>
          <CharString index="353">
            -112.99000549316406 return
          </CharString>
          <CharString index="354">
            212.99000549316406 return
          </CharString>
          <CharString index="355">
            105.99000549316406 return
          </CharString>
          <CharString index="356">
            -27.009994506835938 return
          </CharString>
          <CharString index="357">
            134.99000549316406 return
          </CharString>
          <CharString index="358">
            132.99000549316406 return
          </CharString>
          <CharString index="359">
            99 63 -46 -104 return
          </CharString>
          <CharString index="360">
            hlineto
            hintmask 11011000
            67 callgsubr
            rlineto
            return
          </CharString>
          <CharString index="361">
            212 callsubr
            hvcurveto
            -66 70 rlineto
            -7 callsubr
            return
          </CharString>
          <CharString index="362">
            213 callgsubr
            hvcurveto
            -66 70 rlineto
            -7 callsubr
            return
          </CharString>
          <CharString index="363">
            116.99000549316406 rlinecurve
            -110 88 -238 -414 rlineto
            return
          </CharString>
          <CharString index="364">
            -133 -35 rcurveline
            -7 -25 20.009994506835938 -30 12 return
          </CharString>
          <CharString index="365">
            -46.02000427246094 vhcurveto
            -16 -110.97999572753906 rlineto
            return
          </CharString>
          <CharString index="366">
            104 rlinecurve
            -95 91 callsubr
            return
          </CharString>
          <CharString index="367">
            106 123 callgsubr
            -11 hvcurveto
            return
          </CharString>
          <CharString index="368">
            hstemhm
            1005.9900054931641 163 return
          </CharString>
          <CharString index="369">
            199.99000549316406 212 38 return
          </CharString>
          <CharString index="370">
            101.00999450683594 return
          </CharString>
          <CharString index="371">
            427.00999450683594 return
          </CharString>
          <CharString index="372">
            145.00999450683594 return
          </CharString>
          <CharString index="373">
            67.99000549316406 return
          </CharString>
          <CharString index="374">
            -34 10 10 -13 hvcurveto
            return
          </CharString>
          <CharString index="375">
            29.979995727539062 return
          </CharString>
          <CharString index="376">
            121.00999450683594 return
          </CharString>
          <CharString index="377">
            149.99000549316406 return
          </CharString>
          <CharString index="378">
            1526.990005493164 rmoveto
            -2 232 callgsubr
            return
          </CharString>
          <CharString index="379">
            137 31 callgsubr
            return
          </CharString>
          <CharString index="380">
            rcurveline
            128 callsubr
            rlineto
            return
          </CharString>
          <CharString index="381">
            187 callsubr
            43 6 callgsubr
            hhcurveto
            return
          </CharString>
          <CharString index="382">
            43 203 callgsubr
            return
          </CharString>
          <CharString index="383">
            1403 0 43 127.99000549316406 115 return
          </CharString>
          <CharString index="384">
            128 callgsubr
            183 return
          </CharString>
          <CharString index="385">
            -5 callsubr
            rmoveto
            return
          </CharString>
          <CharString index="386">
            -12 callgsubr
            53 return
          </CharString>
          <CharString index="387">
            hstemhm
            -76 callsubr
            return
          </CharString>
          <CharString index="388">
            134 callsubr
            rmoveto
            return
          </CharString>
          <CharString index="389">
            1550.990005493164 rmoveto
            return
          </CharString>
          <CharString index="390">
            81 184 callsubr
            52.02000427246094 return
          </CharString>
          <CharString index="391">
            1615.990005493164 rmoveto
            242 -328 rlineto
            return
          </CharString>
          <CharString index="392">
            925 rmoveto
            376 -284 245 -356 return
          </CharString>
          <CharString index="393">
            23 146.97999572753906 19 142 71 vvcurveto
            return
          </CharString>
          <CharString index="394">
            -557.9900054931641 43 514.9900054931641 return
          </CharString>
          <CharString index="395">
            117.99000549316406 340.97999572753906 107 return
          </CharString>
          <CharString index="396">
            hstemhm
            -8 callsubr
            161.99000549316406 return
          </CharString>
          <CharString index="397">
            916.9900054931641 813.9900054931641 hstem
            return
          </CharString>
          <CharString index="398">
            217 -59 callsubr
            return
          </CharString>
          <CharString index="399">
            147.989990234375 116 return
          </CharString>
          <CharString index="400">
            rlineto
            890 hlineto
            11 127 return
          </CharString>
          <CharString index="401">
            -41 -216 -104 -138 -36 return
          </CharString>
          <CharString index="402">
            322.00999450683594 return
          </CharString>
          <CharString index="403">
            -6.9900054931640625 return
          </CharString>
          <CharString index="404">
            258.99000549316406 return
          </CharString>
          <CharString index="405">
            332.99000549316406 return
          </CharString>
          <CharString index="406">
            155.02000427246094 return
          </CharString>
          <CharString index="407">
            26.990005493164062 return
          </CharString>
          <CharString index="408">
            145.97999572753906 return
          </CharString>
          <CharString index="409">
            84.99000549316406 return
          </CharString>
          <CharString index="410">
            677.9900054931641 return
          </CharString>
          <CharString index="411">
            29.990005493164062 return
          </CharString>
          <CharString index="412">
            -184.02000427246094 return
          </CharString>
          <CharString index="413">
            -1137 -85 callgsubr
            return
          </CharString>
          <CharString index="414">
            151 callgsubr
            -4 39 return
          </CharString>
          <CharString index="415">
            rlineto
            98 callgsubr
            hlineto
            56 110 return
          </CharString>
          <CharString index="416">
            -263 -510 -269 181 -283 return
          </CharString>
          <CharString index="417">
            370.02000427246094 264 vvcurveto
            endchar
          </CharString>
        <CharString name=".notdef">
          735 0 230.99000549316406 949 235.99000549316406 hstem
          95 callgsubr
          240.99000549316406 924.9999847412109 239 vstem
          220 1415.990005493164 rmoveto
          -1415.990005493164 1404.990005493164 1415.990005493164 -1404.990005493164 vlineto
          362.99000549316406 -1183.990005493164 rmoveto
          109 callsubr
          11 -102.00999450683594 115 -10 12 350 199 callgsubr
          rcurveline
          -351.00999450683594 356 116 119.00999450683594 346.00999450683594 -363.00999450683594 342 362 121 112 callsubr
          -355 -350.99000549316406 355 -362 -115 -116 -351 363.99000549316406 -337 -362.99000549316406 rlineto
          endchar
        </CharString>
        <CharString name="A">
          -87 callgsubr
          203 callgsubr
          hintmask 11011000
          1001.9799957275391 hmoveto
          -96 callgsubr
          hintmask 11101000
          -75 callgsubr
          hintmask 11011000
          -540 hlineto
          endchar
        </CharString>
        <CharString name="AE">
          40 callgsubr
          hstemhm
          -107 1823.979995727539 hintmask 11110010
          1710.979995727539 1409.990005493164 254 callgsubr
          hintmask 11100110
          9 callsubr
          hintmask 11110010
          152 callgsubr
          hintmask 11101010
          466 850 111 -5.0200042724609375 rlineto
          hintmask 11110010
          -106 -844.9900054931641 rlineto
          endchar
        </CharString>
        <CharString name="AEacute">
          40 callgsubr
          124 43 hstemhm
          -107 1823.979995727539 hintmask 11110011
          1384 103 callsubr
          -95 -24 callsubr
          237 callsubr
          169 callgsubr
          104 rlinecurve
          326.97999572753906 -493 254 callgsubr
          hintmask 11100111
          9 callsubr
          hintmask 11110011
          152 callgsubr
          hintmask 11101011
          466 850 111 -5.0200042724609375 rlineto
          hintmask 11110011
          -106 -844.9900054931641 rlineto
          endchar
        </CharString>
        <CharString name="Aacute">
          -87 callgsubr
          124 253 callgsubr
          1113.990005493164 10 callgsubr
          -112 -1902.979995727539 rmoveto
          -96 callgsubr
          hintmask 11101100
          -75 callgsubr
          hintmask 11011100
          -540 hlineto
          endchar
        </CharString>
        <CharString name="Abreve">
          -87 callgsubr
          106.989990234375 112 hstemhm
          505.99000549316406 104 425.989990234375 99 hintmask 11011110
          802 281 callsubr
          167 callgsubr
          222 callsubr
          16 hvcurveto
          2 280 callgsubr
          -101 hlineto
          88 callsubr
          -15 72 callsubr
          123 callgsubr
          -11 hvcurveto
          -2 -25 callsubr
          -0.9799957275390625 12 112 callgsubr
          vvcurveto
          123 callsubr
          287 callgsubr
          166 callgsubr
          vhcurveto
          199.99000549316406 299 callgsubr
          rmoveto
          -96 callgsubr
          hintmask 11101110
          -75 callgsubr
          hintmask 11011110
          -540 hlineto
          endchar
        </CharString>
        <CharString name="Acircumflex">
          -84 callsubr
        </CharString>
        <CharString name="Adieresis">
          -87 callgsubr
          191 103 callgsubr
          502.97999572753906 82 callsubr
          hintmask 11011110
          587.9799957275391 1721 rmoveto
          107 callsubr
          2 -34 40 -60 hhcurveto
          -76 callsubr
          -56.02000427246094 -51 -65 -4 hvcurveto
          -57 -82 callgsubr
          39 158 callgsubr
          420 hmoveto
          169 callgsubr
          51 119 callgsubr
          4 135 callsubr
          40 -59 hhcurveto
          -50 -60.99000549316406 -51 -65 -1 hvcurveto
          -58 -1 38 -40 133 callsubr
          hhcurveto
          -6 -1721 rmoveto
          -96 callgsubr
          hintmask 11101110
          -75 callgsubr
          hintmask 11011110
          -540 hlineto
          endchar
        </CharString>
        <CharString name="Agrave">
          -87 callgsubr
          269 callsubr
          253 callgsubr
          820.9799957275391 1600.979995727539 rmoveto
          56 146 callgsubr
          92 callgsubr
          62 -104 152 -140 97 -58 rlinecurve
          181 -1600.979995727539 rmoveto
          -96 callgsubr
          hintmask 11101100
          -75 callgsubr
          hintmask 11011100
          -540 hlineto
          endchar
        </CharString>
        <CharString name="Amacron">
          -87 callgsubr
          217.989990234375 -76 callgsubr
          203 callgsubr
          hintmask 11011100
          1038.990005493164 221 callgsubr
          -510 hlineto
          59 callgsubr
          -37 -1861.979995727539 rmoveto
          -96 callgsubr
          hintmask 11101100
          -75 callgsubr
          hintmask 11011100
          -540 hlineto
          endchar
        </CharString>
        <CharString name="Aogonek">
          155 -435.99000549316406 -76 callgsubr
          322 -80 callsubr
          hstemhm
          267 callgsubr
          148 hintmask 11101100
          1135.979995727539 -264 rmoveto
          2 callgsubr
          8 callgsubr
          -54 6 callsubr
          -55 hhcurveto
          -51 -36.99000549316406 156 callgsubr
          -86 callgsubr
          281 callgsubr
          52 hvcurveto
          162 callgsubr
          hlineto
          -289.02000427246094 1530 rlineto
          -168 hlineto
          -744.9799957275391 -56 callgsubr
          160.97000122070312 hlineto
          201 430.97999572753906 rlineto
          8 callsubr
          hlineto
          76 -430 rlineto
          -88.99000549316406 8 callgsubr
          -171 -100 -139 vvcurveto
          -58 51 185 callsubr
          137 116 302 callsubr
          1 callgsubr
          38 45 vhcurveto
          -40 121 callgsubr
          -769.9900054931641 810 rmoveto
          hintmask 11110100
          -75 callgsubr
          hintmask 11101100
          -540 hlineto
          endchar
        </CharString>
        <CharString name="Aring">
          155 0 43 387.97999572753906 115.00999450683594 1369.990005493164 84 hstem
          497.99000549316406 107 395.989990234375 109.00999450683594 vstem
          1001.9799957275391 hmoveto
          79 callgsubr
          hlineto
          -282.00999450683594 1490.979995727539 rlineto
          133 252 callgsubr
          107.00999450683594 81 152 vvcurveto
          157 -104 94 -166 -158 -183.99000549316406 -83 -188.99000549316406 -123 64 -82 116 -29 vhcurveto
          -727.9799957275391 -1494 rlineto
          160.97000122070312 hlineto
          201 430.97999572753906 rlineto
          8 callsubr
          hlineto
          76 -430.97999572753906 rlineto
          -396.99000549316406 1722.979995727539 rmoveto
          79 callgsubr
          120 63 callsubr
          103 106 -75 callsubr
          -62 -92 -158 -105.99000549316406 -39 -112 214 callgsubr
          -70.99000549316406 68 -8 callsubr
          vhcurveto
          -239 -1176.990005493164 rmoveto
          -75 callgsubr
          -540 hlineto
          endchar
        </CharString>
        <CharString name="Atilde">
          -87 callgsubr
          163 46 callsubr
          -49.99000549316406 1247.979995727539 hintmask 11011010
          660.9900054931641 1839.979995727539 rmoveto
          57 callsubr
          hintmask 11011110
          -98 144 callsubr
          -75 callsubr
          114 callgsubr
          rlineto
          hintmask 11011010
          -48 callgsubr
          37 43 63 80 hhcurveto
          34 -309.97999572753906 rmoveto
          -744.9799957275391 -56 callgsubr
          160.97000122070312 hlineto
          201 430.97999572753906 rlineto
          8 callsubr
          hlineto
          76 -430.97999572753906 rlineto
          79 callgsubr
          hlineto
          -289.02000427246094 1530 rlineto
          -168 hlineto
          -328.99000549316406 -984 rmoveto
          hintmask 11101010
          -75 callgsubr
          hintmask 11011010
          -540 hlineto
          endchar
        </CharString>
        <CharString name="B">
          80 callsubr
          hstemhm
          970.9900054931641 96 callsubr
          75 callgsubr
          -13 callgsubr
          hintmask 10110100
          819 799.9900054931641 rmoveto
          hintmask 10110010
          94 callgsubr
          hintmask 01101100
          142 callsubr
          hintmask 10110100
          26 callgsubr
          hintmask 10110010
          55 callgsubr
          hintmask 10110100
          4 callgsubr
        </CharString>
        <CharString name="C">
          17 callsubr
          240 callgsubr
          823.9900054931641 1545.990005493164 -102 callgsubr
        </CharString>
        <CharString name="CR">
          -1110 endchar
        </CharString>
        <CharString name="Cacute">
          17 callsubr
          108.00001525878906 43 240 callgsubr
          758.9900054931641 183 callgsubr
          162 callsubr
          49 callsubr
          -95.00999450683594 91 callsubr
          65 -108 -102 callgsubr
        </CharString>
        <CharString name="Ccaron">
          17 callsubr
          266 callsubr
          116 240 callgsubr
          492.99000549316406 -8 callgsubr
          321.97999572753906 151 callsubr
          331 -386.99000549316406 -102 callgsubr
        </CharString>
        <CharString name="Ccedilla">
          31 -462.99000549316406 149 callgsubr
          324 117.99000549316406 1314.989990234375 126.00999450683594 hstem
          293 callgsubr
          328 130.99000549316406 vstem
          817.9900054931641 1419.979995727539 rmoveto
          160.99000549316406 73.02000427246094 -44 -18 41.99000549316406 hvcurveto
          53 126 -51 16.020004272460938 rlineto
          22 -58 callgsubr
          -76 24 -129 hhcurveto
          -408 -316 -371 -548 -25 callsubr
          hvcurveto
          5 -299.00999450683594 117.99000549316406 -320 351 -21.990005493164062 rrcurveto
          6 -39 2 8 callgsubr
          -42 vvcurveto
          -143.02000427246094 36 callsubr
          -41 callsubr
          -115 rlineto
          -16.020004272460938 22 71 -12.990005493164062 268 callgsubr
          hhcurveto
          143 97 callgsubr
          69 215 70 -11 73 callgsubr
          -17 41 hvcurveto
          188 11 105 54 86 callsubr
          230 callsubr
          -23 128 rcurveline
          -38.99000549316406 -54.99000549316406 -146 -74 callgsubr
          -165 hhcurveto
          -270.00999450683594 -110 249.02000427246094 287.99000549316406 -5 hvcurveto
          349 -7 169 429 392.00999450683594 hhcurveto
          endchar
        </CharString>
        <CharString name="Ccircumflex">
          17 callsubr
          106.010009765625 25 callgsubr
          293 callgsubr
          hintmask 11011000
          479.99000549316406 43 callgsubr
          hintmask 11101000
          -48 callsubr
          hintmask 11011000
          67 callgsubr
          rlineto
          344 163 callsubr
          -102 callgsubr
        </CharString>
        <CharString name="Cdotaccent">
          17 callsubr
          160.99000549316406 213 hstem
          293 callgsubr
          467 56 callgsubr
          vstem
          730.9900054931641 52 callsubr
          -4 39 -51 callgsubr
          -56.02000427246094 59 callsubr
          93 -258.99000549316406 -102 callgsubr
        </CharString>
        <CharString name="D">
          16 callsubr
          hstemhm
          1141.979995727539 155.99000549316406 hintmask 10101000
          1297.979995727539 921.9900054931641 rmoveto
          31 callsubr
          hintmask 01011000
          -79 callgsubr
          hintmask 10101000
          31 -3 54 -2.9900054931640625 28 -1 470 -12 313 420.99000549316406 -7 529 rrcurveto
          -739.9900054931641 -823.0099945068359 -100 callsubr
          endchar
        </CharString>
        <CharString name="Dcaron">
          16 callsubr
          129 callgsubr
          30 callgsubr
          hintmask 10101100
          827.9900054931641 1613.990005493164 rmoveto
          322 -37 callgsubr
          -74 callgsubr
          -74 callgsubr
          218 callsubr
          470 -692 rmoveto
          31 callsubr
          hintmask 01011100
          -79 callgsubr
          hintmask 10101100
          31 -3 54 -2.9900054931640625 28 -1 470 -12 313 420.99000549316406 -7 529 rrcurveto
          -739.9900054931641 -823.0099945068359 -100 callsubr
          endchar
        </CharString>
        <CharString name="Dcroat">
          -26 callsubr
          -161.02000427246094 hlineto
          -12 -99.99000549316406 rlineto
          160 -20 callsubr
          429 hlineto
          12 99.99000549316406 rlineto
          -427.99000549316406 26 callsubr
        </CharString>
        <CharString name="E">
          28 0 -86 callsubr
          hstem
          121 949 vstem
          314 1530 -101 callgsubr
        </CharString>
        <CharString name="Eacute">
          28 0 -86 callsubr
          124.00001525878906 43 hstem
          121 949 vstem
          658.9799957275391 183 callgsubr
          97.00999450683594 59 157 136.99000549316406 62 259 callsubr
          -344.99000549316406 -123.99000549316406 -101 callgsubr
        </CharString>
        <CharString name="Ebreve">
          28 0 -86 callsubr
          106.99000549316406 112 hstem
          423.99000549316406 104 426 99 vstem
          424 155 callgsubr
          207.99000549316406 190 222 callsubr
          16.020004272460938 vhcurveto
          153 callgsubr
          10 callsubr
          -103.00999450683594 287 callgsubr
          -110 -429 -101 callgsubr
        </CharString>
        <CharString name="Ecaron">
          28 0 -86 callsubr
          134 callgsubr
          116 hstem
          121 967 vstem
          392.99000549316406 -8 callgsubr
          295 callsubr
          49 callgsubr
          -244.02000427246094 270 -58 callgsubr
          -74 callgsubr
          rlineto
          -79 -402.99000549316406 -101 callgsubr
        </CharString>
        <CharString name="Ecircumflex">
          28 0 -86 callsubr
          122.010009765625 25 callgsubr
          121 949 hintmask 11101100
          379.99000549316406 43 callgsubr
          hintmask 11110100
          -48 callsubr
          hintmask 11101100
          -340 -347.00999450683594 rlineto
          146 callsubr
          -122.99000549316406 -101 callgsubr
        </CharString>
        <CharString name="Edieresis">
          28 0 -86 callsubr
          191.00001525878906 121 callsubr
          419.97999572753906 241 callgsubr
          vstem
          419.97999572753906 -10 callgsubr
          -50 -52 callgsubr
          -51 -65 -35 callsubr
          hvcurveto
          419 hmoveto
          -58 -1 38 156 callsubr
          4 hvcurveto
          55 -53 callsubr
          37 callsubr
          -1 hvcurveto
          -524.9900054931641 -289 -101 callgsubr
        </CharString>
        <CharString name="Edotaccent">
          28 0 -86 callsubr
          306 callgsubr
          213 hstem
          629.9799957275391 201 vstem
          629.9900054931641 -58 callsubr
          -52 callgsubr
          219 callsubr
          -315.99000549316406 231 callsubr
          -101 callgsubr
        </CharString>
        <CharString name="Egrave">
          28 0 -86 callsubr
          121.010009765625 43 hstem
          121 949 vstem
          427.99000549316406 103 callsubr
          -30 callsubr
          -104 152 -140 164 callgsubr
          -58 56.02000427246094 66 callsubr
          -114 -372.99000549316406 -101 callgsubr
        </CharString>
        <CharString name="Emacron">
          28 0 -86 callsubr
          187 callgsubr
          139 callgsubr
          121 949 vstem
          447 35 callsubr
          -133 -331.99000549316406 -101 callgsubr
        </CharString>
        <CharString name="Eng">
          378 0 43 1317.990005493164 169 -40.96000671386719 40.96000671386719 183 callsubr
          hintmask 10110000
          1189.990005493164 1530 rmoveto
          -134 -1096 -68 callgsubr
          -157.99000549316406 hlineto
          -60 callsubr
          hintmask 11010000
          29 288.00999450683594 72 -239 489 -1110.020004272461 -43.99000549316406 -114.97000122070312 95 callsubr
          -101.00999450683594 -65 callsubr
          -43 rlinecurve
          28 -68 197 35 171 87 68 193 rlinecurve
          3 hlineto
          192.99000549316406 1530 rlineto
          hintmask 10110000
          122 callsubr
          endchar
        </CharString>
        <CharString name="Eogonek">
          28 -435.99000549316406 -76 callgsubr
          322 -86 callsubr
          hstem
          559.9799957275391 148 vstem
          1064 243 callsubr
          20 callsubr
          -193 -1530 rlineto
          703 hlineto
          7 callgsubr
          -76 callsubr
          -174 -99 -138.02000427246094 vvcurveto
          -58 51 185 callsubr
          137.02000427246094 116 86 1 callgsubr
          38 44 vhcurveto
          -6 callgsubr
          12 callgsubr
          8 callgsubr
          -55 6 callsubr
          -54.99000549316406 hhcurveto
          168 callgsubr
          -36.99000549316406 156 callgsubr
          96 callsubr
          7 callsubr
          79.02000427246094 52 hvcurveto
          64 hlineto
          11 127 -737 -13 -52 callsubr
          238 callgsubr
          -473.99000549316406 -6 -69 callsubr
          579.0099945068359 614.0099945068359 -7 rlineto
          endchar
        </CharString>
        <CharString name="Eth">
          -26 callsubr
          -162 hlineto
          -12 -99.99000549316406 rlineto
          161 -20 callsubr
          428.00999450683594 hlineto
          11.979995727539062 99.99000549316406 rlineto
          -426.99000549316406 26 callsubr
        </CharString>
        <CharString name="Euro">
          271 -83 callgsubr
          -82 callsubr
          464.99000549316406 63 callgsubr
          247.00999450683594 63 callgsubr
          406.99998474121094 232 callgsubr
          hstem
          236.99000549316406 208 callgsubr
          vstem
          893.9900054931641 1431.979995727539 rmoveto
          96 callsubr
          105 -35 147 callsubr
          36 hvcurveto
          49 121 rlineto
          23 -71 7 callgsubr
          31 174 callsubr
          -296 -245 -197 -324.02000427246094 -105 hvcurveto
          -198 hlineto
          -16 -107.99000549316406 rlineto
          186 hlineto
          -17 -77 -55 callsubr
          -82 -1 -88 rrcurveto
          -192 hlineto
          -16 -107.99000549316406 rlineto
          211 hlineto
          -289 22 135 -288.97999572753906 310.99000549316406 hhcurveto
          201 173 54.97999572753906 71.99000549316406 63 hvcurveto
          110 callgsubr
          104.02000427246094 rlineto
          -61 54 callgsubr
          -115 -57 -173 hhcurveto
          -220.02000427246094 -98 194.99000549316406 270.00999450683594 -13 hvcurveto
          568.0099945068359 hlineto
          132 callgsubr
          63 callgsubr
          rlineto
          -584.9900054931641 hlineto
          68 callsubr
          88 8 82 132 callgsubr
          77 rrcurveto
          594 hlineto
          230 callgsubr
          63 callgsubr
          rlineto
          -583 hlineto
          248.02000427246094 74 151 208 callgsubr
          224 hhcurveto
          endchar
        </CharString>
        <CharString name="F">
          180 callgsubr
          hstem
          121 972 vstem
          314 1530 44 callsubr
        </CharString>
        <CharString name="G">
          -64 callgsubr
          240 callsubr
          786.9799957275391 607.9900054931641 -107 callsubr
          endchar
        </CharString>
        <CharString name="Gbreve">
          -64 callgsubr
          90.989990234375 112 120 callgsubr
          291.010009765625 104 426 99 vstem
          851.9900054931641 281 callsubr
          190 127.02000427246094 165 146 16 hvcurveto
          153 callgsubr
          195 callsubr
          231 callgsubr
          260 callsubr
          -2 24 callgsubr
          -103 hlineto
          -1 -6 0 -9 -6 vvcurveto
          -160 88 -162 208 vhcurveto
          -65 -1029 -107 callsubr
          endchar
        </CharString>
        <CharString name="Gcaron">
          -64 callgsubr
          67.989990234375 116 240 callsubr
          897.9900054931641 1613.990005493164 rmoveto
          322 -37 callgsubr
          -74 callgsubr
          -74 callgsubr
          218 callsubr
          -111 -1006 -107 callsubr
          endchar
        </CharString>
        <CharString name="Gcircumflex">
          -64 callgsubr
          106.00999450683594 25 callgsubr
          -22 callgsubr
          153 hintmask 11101100
          901 1863.990005493164 rmoveto
          hintmask 11110100
          218.99000549316406 -264.99000549316406 73 53 -204.99000549316406 348 rlineto
          -136 hlineto
          hintmask 11101100
          -339.99000549316406 -347.00999450683594 304 callgsubr
          73 callsubr
          330.02000427246094 77 callgsubr
          -114.02000427246094 -1256 -107 callsubr
          endchar
        </CharString>
        <CharString name="Gcommaaccent">
          230 101 callsubr
          499.99000549316406 117.99000549316406 506.5 121.49000549316406 695.0099945068359 122 120 callgsubr
          345.99000549316406 265 callsubr
          vstem
          786.9799957275391 607.9900054931641 -107 callsubr
          -150 -659.9799957275391 rmoveto
          -94 -91 -4 -41 rlineto
          42 -17 268 callsubr
          -34 callsubr
          -38.99000549316406 -61 callsubr
          endchar
        </CharString>
        <CharString name="Gdotaccent">
          -64 callgsubr
          160.989990234375 213 120 callgsubr
          497.010009765625 56 callgsubr
          vstem
          845.9900054931641 226 callgsubr
          -88 callsubr
          -35 -42 callsubr
          -58.97999572753906 hhcurveto
          168 callgsubr
          257 callgsubr
          198 callsubr
          39 158 callgsubr
          -59 -1099 -107 callsubr
          endchar
        </CharString>
        <CharString name="Gtilde">
          -64 callgsubr
          147 46 callsubr
          -22 callgsubr
          153 hintmask 11110100
          710.9799957275391 1839.979995727539 rmoveto
          58 callsubr
          254 callsubr
          -29.979995727539062 -44.02000427246094 -76 -80 hhcurveto
          hintmask 11111100
          65 callsubr
          108 callgsubr
          hintmask 11110100
          -48 callgsubr
          111 callgsubr
          43 63 80 hhcurveto
          132.02000427246094 -415.99000549316406 rmoveto
          181.99000549316406 115.02000427246094 -47 -35 58.99000549316406 hvcurveto
          48 -40 callsubr
          -39 12 rlineto
          69 callgsubr
          -74 callgsubr
          -111 34 -185 hhcurveto
          -414 -328.99000549316406 -370.00999450683594 -548.9900054931641 9.990005493164062 204 callsubr
          139.02000427246094 -333.97999572753906 360 hhcurveto
          157 140 47.97999572753906 30 99.99000549316406 hvcurveto
          54 16 44 13 39 4 82 635 rcurveline
          -430 hlineto
          -15.020004272460938 -121 281.00999450683594 -1 -53 -420.99000549316406 rlineto
          -43 -113.99000549316406 -144.02000427246094 -42 -113.99000549316406 hhcurveto
          -277 -99 277.00999450683594 266 -2 hvcurveto
          371 -4 191 409 391 hhcurveto
          endchar
        </CharString>
        <CharString name="H">
          300 0 43 670.9900054931641 115 660.0399932861328 139 callsubr
          121 1218.990005493164 vstem
          1189.990005493164 1530 12 callsubr
        </CharString>
        <CharString name="Hbar">
          300 0 43 303 callgsubr
          115 310.989990234375 115.00999450683594 -115.00999450683594 494.02000427246094 hstemhm
          1 callgsubr
          1459.990005493164 hintmask 11101000
          1515.990005493164 1151 rmoveto
          -224 232 callsubr
          -726 232 callsubr
          -199 hlineto
          -11 95 callsubr
          rlineto
          196 hlineto
          -130.99000549316406 -1035.979995727539 rlineto
          150 hlineto
          77 610 rlineto
          726 hlineto
          -77 -610 rlineto
          151 hlineto
          130 1035.979995727539 rlineto
          227 hlineto
          11 115.02000427246094 rlineto
          -427.99000549316406 -426 rmoveto
          -726.0200042724609 hlineto
          40 310.99000549316406 rlineto
          726.0200042724609 hlineto
          -40 -310.99000549316406 rlineto
          endchar
        </CharString>
        <CharString name="Hcircumflex">
          300 0 43 670.9900054931641 115 660.0399932861328 -102 callsubr
          122.00999450683594 25 callgsubr
          121 1218.990005493164 hintmask 11101100
          890.9799957275391 1863.990005493164 rmoveto
          hintmask 11110100
          -48 callsubr
          hintmask 11101100
          -340 -347.00999450683594 101 callgsubr
          330 77 callgsubr
          169 callsubr
          -333.99000549316406 12 callsubr
        </CharString>
        <CharString name="I">
          -538 182 callsubr
          144.99000549316406 343.97999572753906 vstem
          337.97999572753906 1530 -91 callgsubr
          endchar
        </CharString>
        <CharString name="I.uc">
          -50 callgsubr
        </CharString>
        <CharString name="IJ">
          46 182 callsubr
          144.99000549316406 927.9799957275391 vstem
          337.97999572753906 1530 -29 callsubr
        </CharString>
        <CharString name="IJ_acutecomb">
          46 -80 callgsubr
          120 43 -39 43 hstemhm
          124 callgsubr
          1171.979995727539 hintmask 11011000
          78 callgsubr
          hintmask 11101000
          303 callgsubr
          -4 rmoveto
          57 -51 97.00999450683594 59 157 137 62 104 rlinecurve
          -95 97 -278 -345.99000549316406 rlineto
          -606 -120 -29 callsubr
        </CharString>
        <CharString name="Iacute">
          -538 -80 callgsubr
          124 43 278 callgsubr
          604.9900054931641 vstem
          78 callgsubr
          -6 callgsubr
          -123.99000549316406 -91 callgsubr
          endchar
        </CharString>
        <CharString name="Ibreve">
          -538 -80 callgsubr
          106.989990234375 112 hstem
          130 callsubr
          104 425.989990234375 99 vstem
          130 callsubr
          -20 callgsubr
          196 -429 -91 callgsubr
          endchar
        </CharString>
        <CharString name="Icircumflex">
          -538 -80 callgsubr
          122.00999450683594 25 callgsubr
          98 681 hintmask 11011000
          98 43 callgsubr
          104 callgsubr
          rlineto
          239.99000549316406 -122.99000549316406 -91 callgsubr
          endchar
        </CharString>
        <CharString name="Idieresis">
          -538 -80 callgsubr
          191 121 callsubr
          210 callsubr
          82 callsubr
          vstem
          139 -25 callgsubr
          -220.02000427246094 -289 -91 callgsubr
          endchar
        </CharString>
        <CharString name="Idotaccent">
          -50 callgsubr
        </CharString>
        <CharString name="Igrave">
          -538 -80 callgsubr
          269 callsubr
          43 278 callgsubr
          367.97999572753906 vstem
          301 callsubr
          141 callgsubr
          -94 -97.00999450683594 rlineto
          192 -372.99000549316406 -91 callgsubr
          endchar
        </CharString>
        <CharString name="Imacron">
          -538 -80 callgsubr
          217.989990234375 113.99000549316406 278 callgsubr
          529.9799957275391 vstem
          161 callgsubr
          221 callgsubr
          33 callsubr
          197 callgsubr
          173 -331.99000549316406 -91 callgsubr
          endchar
        </CharString>
        <CharString name="Iogonek">
          -538 -435.99000549316406 -76 callgsubr
          322 -79 callsubr
          hstem
          -122 -77 callsubr
          vstem
          -76 callgsubr
          -322 rmoveto
          -51 -37 156 callgsubr
          159 281 callgsubr
          52 hvcurveto
          31 hlineto
          192.99000549316406 1530 rlineto
          -151 hlineto
          -192.99000549316406 -1528.009994506836 rlineto
          -89 8 callgsubr
          -177.99000549316406 -100 -140 vvcurveto
          -58 86 callsubr
          185 callsubr
          -40 callsubr
          116 86.02000427246094 1 callgsubr
          38 45 vhcurveto
          -40 12 callgsubr
          -49 -54 6 callsubr
          -54.99000549316406 hhcurveto
          endchar
        </CharString>
        <CharString name="Itilde">
          -538 -80 callgsubr
          163 46 callsubr
          69.97999572753906 764 hintmask 00000000
          hintmask 11111000
          69.97999572753906 27 callsubr
          37 63 callsubr
          63 80 hhcurveto
          hintmask 11101000
          58 callsubr
          33 hvcurveto
          146 callsubr
          70 rlineto
          -7 callsubr
          -30 -44 -76 -80 hhcurveto
          hintmask 11111000
          -98 294 callgsubr
          112 callsubr
          -83 -83 -42 hvcurveto
          hintmask 11101000
          268 -267.97999572753906 -91 callgsubr
          endchar
        </CharString>
        <CharString name="J">
          -526 1489.0299987792969 139 callsubr
          -169 669.9799957275391 vstem
          349.97999572753906 1530 rmoveto
          -56 callsubr
          -193.99000549316406 -53 28 -68 rcurveline
          56 callgsubr
          -47 callgsubr
        </CharString>
        <CharString name="Jcircumflex">
          -526 1489.0299987792969 -102 callsubr
          122.00999450683594 25 callgsubr
          -169 957.9900054931641 hintmask 10110000
          63 callgsubr
          43 callgsubr
          hintmask 11010000
          219 -264.99000549316406 279 callsubr
          -205 348 129 callsubr
          hintmask 10110000
          67 callgsubr
          rlineto
          211 callsubr
          -122.99000549316406 rmoveto
          -56 callsubr
          -193.99000549316406 -53 28 -68 rcurveline
          56 callgsubr
          -47 callgsubr
        </CharString>
        <CharString name="K">
          135 182 callsubr
          121 1161.990005493164 -46 callgsubr
          endchar
        </CharString>
        <CharString name="Kcommaaccent">
          135 287 callsubr
          -79 callsubr
          hstem
          595.9799957275391 124 callgsubr
          -46 callgsubr
          -39 -903.9900054931641 rmoveto
          -94 -91.00999450683594 198 callsubr
          -41 rlineto
          42 -17 30 -53 -52 callgsubr
          vvcurveto
          70 callgsubr
          -39 -62 -49 -33 245 callgsubr
          -20 -35 callgsubr
          -39 rlineto
          71 186 callgsubr
          103 113 165 vvcurveto
          92 110 callgsubr
          93 -76 25 vhcurveto
          endchar
        </CharString>
        <CharString name="L">
          -132 118 callsubr
          hstem
          121 758.9799957275391 vstem
          314 1530 116 callgsubr
        </CharString>
        <CharString name="Lacute">
          -132 118 callsubr
          126.00999450683594 43 hstem
          121 758.9799957275391 vstem
          381.99000549316406 1655.990005493164 rmoveto
          57 -51 97 59 157 -40 callsubr
          169 callgsubr
          104 rlinecurve
          -95.00999450683594 97 -278 -345.99000549316406 rlineto
          -68 -126 116 callgsubr
        </CharString>
        <CharString name="Lcaron">
          -132 118 callsubr
          hstem
          863.9799957275391 210 callsubr
          vstem
          792.9900054931641 1024.979995727539 rmoveto
          4.0099945068359375 -41 callsubr
          -52 callsubr
          -30 70 101 53 168 5 -28 callgsubr
          rlinecurve
          3 97 -35 callsubr
          81.02000427246094 184 callsubr
          52 -133 -35 rcurveline
          -7 -25 20 -30 11.979995727539062 233 callgsubr
          -5 -122 -34 -122 -32 -89 rrcurveto
          -478.99000549316406 505.02000427246094 116 callgsubr
        </CharString>
        <CharString name="Lcommaaccent">
          -132 287 callsubr
          138 callsubr
          hstem
          494.97999572753906 265 callsubr
          vstem
          314 1530 -67 callgsubr
          109 -1712 rmoveto
          42 -17 304 callsubr
          -53 -52 callgsubr
          vvcurveto
          70 callgsubr
          -39 -62 8 callgsubr
          -33 vhcurveto
          -2 -20 -35 callgsubr
          -39 rlineto
          71 186 callgsubr
          103.02000427246094 113 196 callsubr
          -94 -91.00999450683594 -4 -41 rlineto
          endchar
        </CharString>
        <CharString name="Ldot">
          -44 0 128 643.9900054931641 95 callgsubr
          497.04998779296875 139 callsubr
          795.9900054931641 210 vstem
          314 1530 -67 callgsubr
          603 -538.0099945068359 rmoveto
          263 callgsubr
          -46.99000549316406 -58 -70 -1 hvcurveto
          -57 -1 40 -35 223 callsubr
          -12 callgsubr
          46 45 83 65 callgsubr
        </CharString>
        <CharString name="Lslash">
          -132 0.9799957275390625 128.02000427246094 1361.0199890136719 139 callsubr
          -29 908.9799957275391 vstem
          286.97999572753906 127 rmoveto
          -61 callgsubr
          532.9900054931641 468.99000549316406 199 184 callsubr
          98 -428.02000427246094 -185 7 callsubr
          758.9900054931641 224 callgsubr
          -104.02000427246094 -826.9799957275391 -238.97999572753906 123 callsubr
          28 -91 196.99000549316406 83 -75 -592.0200042724609 rlineto
          208 callsubr
          hlineto
          16 130 -593 -4 rlineto
          endchar
        </CharString>
        <CharString name="M">
          276 callgsubr
          hstemhm
          1447.479995727539 215 callsubr
          hintmask 01110000
          265 callgsubr
          1530 126 callgsubr
          hintmask 10110000
          81 callgsubr
          hintmask 01110000
          13 callgsubr
        </CharString>
        <CharString name="N">
          292 -31 callsubr
          183 callsubr
          hintmask 10011000
          314 1530 rmoveto
          -60 callsubr
          hintmask 10101000
          -89 callgsubr
          hintmask 01011000
          -68 callgsubr
          hintmask 10011000
          236 callsubr
        </CharString>
        <CharString name="NULL">
          -1110 endchar
        </CharString>
        <CharString name="Nacute">
          292 -31 callsubr
          124 43 183 callsubr
          hintmask 10011100
          804.9900054931641 183 callgsubr
          162 callsubr
          23 callgsubr
          -95 -24 callsubr
          rlineto
          -490.99000549316406 -123.99000549316406 -74 callsubr
        </CharString>
        <CharString name="Ncaron">
          292 -31 callsubr
          129 callgsubr
          183 callsubr
          hintmask 10011100
          538.9900054931641 -8 callgsubr
          321.99000549316406 151 callsubr
          -225 -402.99000549316406 -74 callsubr
        </CharString>
        <CharString name="Ncommaaccent">
          292 101 callsubr
          516.9900054931641 -26 callgsubr
          hstemhm
          596.9900054931641 124 callgsubr
          hintmask 11001100
          314 1530 rmoveto
          -60 callsubr
          hintmask 11010100
          -89 callgsubr
          hintmask 10101100
          -68 callgsubr
          hintmask 11001100
          176 callgsubr
          210.99000549316406 -1713.990005493164 rmoveto
          -78 callgsubr
          -76 25 vhcurveto
          212 callgsubr
          -91 -35 callsubr
          -41 rlineto
          endchar
        </CharString>
        <CharString name="Ntilde">
          292 -31 callsubr
          163 46 callsubr
          121 1211.979995727539 hintmask 00000000
          hintmask 10011110
          497.99000549316406 1797.979995727539 rmoveto
          -75 callsubr
          114 callgsubr
          rlineto
          -48 callgsubr
          37 43 63 80 hhcurveto
          hintmask 10011010
          57 callsubr
          hintmask 10011110
          -98 144 callsubr
          hintmask 10011010
          -184 -267.97999572753906 rmoveto
          -60 callsubr
          hintmask 10101010
          -89 callgsubr
          hintmask 01011010
          -68 callgsubr
          hintmask 10011010
          236 callsubr
        </CharString>
        <CharString name="O">
          -49 callsubr
          hstem
          -69 callgsubr
          vstem
          -22 callgsubr
          612.9900054931641 -106 callgsubr
        </CharString>
        <CharString name="OE">
          1015 -17 115.97000122070312 -98.97000122070312 -86 callsubr
          -103.00999450683594 -39 callgsubr
          284 callgsubr
          hintmask 01110100
          2051.990005493164 243 callsubr
          20 callsubr
          -44.02000427246094 -349 rlineto
          hintmask 10101100
          215 -61.99000549316406 -142 151 -235.99000549316406 hhcurveto
          -407 -309 -403 -531 9.990005493164062 hvcurveto
          -357.99000549316406 7 171 -271.99000549316406 320 hhcurveto
          229.99000549316406 188 148 callsubr
          200 120 hvcurveto
          hintmask 01110100
          -39 -308 293 callsubr
          -736.9900054931641 -13 -52 callsubr
          8 callsubr
          479.00999450683594 -11 -41 callgsubr
          127 -473.99000549316406 -6 -69 callsubr
          579.0099945068359 614.0099945068359 -7 rlineto
          hintmask 10101100
          -1418 -1311.009994506836 rmoveto
          -233 -127.02000427246094 178.02000427246094 366 -5 hvcurveto
          418 -6 222 366 309 hhcurveto
          240 114 -187 -351.99000549316406 6 hvcurveto
          -429 7 -216 -360.02000427246094 -310.99000549316406 hhcurveto
          endchar
        </CharString>
        <CharString name="Oacute">
          -49 callsubr
          107.00001525878906 43 hstem
          -69 callgsubr
          vstem
          780.9799957275391 183 callgsubr
          97.00999450683594 49 callsubr
          -95.00999450683594 91 callsubr
          -669 -1041 -106 callgsubr
        </CharString>
        <CharString name="Obreve">
          -49 callsubr
          -8 callsubr
          112 284 callgsubr
          276.02000427246094 104 426 99 -31.010009765625 156.99000549316406 hintmask 11111010
          544.9900054931641 155 callgsubr
          208 vhcurveto
          hintmask 11111100
          167 callgsubr
          222 callsubr
          16.020004272460938 hvcurveto
          189 callgsubr
          -15.020004272460938 195 callsubr
          231 callgsubr
          106 123 callgsubr
          -11.020004272460938 hvcurveto
          -38 callsubr
          24 callgsubr
          -103 hlineto
          hintmask 11111010
          -1 -6 0 -9 -6 vvcurveto
          -433.00999450683594 -1346 -106 callgsubr
        </CharString>
        <CharString name="Ocircumflex">
          -49 callsubr
          105.010009765625 43 -42.02000427246094 43 hstemhm
          -69 callgsubr
          hintmask 11011100
          501.99000549316406 43 callgsubr
          hintmask 11101100
          -48 callsubr
          hintmask 11011100
          -340 -347.00999450683594 rlineto
          -390 -1040 -106 callgsubr
        </CharString>
        <CharString name="Odieresis">
          -49 callsubr
          174.00001525878906 213.99000549316406 284 callgsubr
          273.00999450683594 241 callgsubr
          -27 callgsubr
          156.99000549316406 hintmask 11111010
          541.9799957275391 -10 callgsubr
          -50 -52 callgsubr
          -51 -65 -35 callsubr
          hvcurveto
          hintmask 11111100
          419 hmoveto
          -58 -0.9799957275390625 -24 callgsubr
          156 callsubr
          4 hvcurveto
          55 4.0099945068359375 37 callsubr
          -1 hvcurveto
          -849 -1206 rmoveto
          -357.99000549316406 7 169 -271.99000549316406 317.00999450683594 hhcurveto
          hintmask 11111010
          413.99000549316406 290.02000427246094 411.99000549316406 520.9900054931641 86 callgsubr
          346.00999450683594 -6 -159.99000549316406 285 -321 hhcurveto
          hintmask 11111100
          -42 callgsubr
          hintmask 11111010
          1031 275 rmoveto
          -429 53 callgsubr
          -360.02000427246094 -307.02000427246094 hhcurveto
          -227 -128 178.02000427246094 366 -5 hvcurveto
          418 -6 220 366 306.02000427246094 hhcurveto
          234 -76 callgsubr
          -187 -351.99000549316406 6 hvcurveto
          endchar
        </CharString>
        <CharString name="Ograve">
          -49 callsubr
          104.010009765625 43 hstem
          -69 callgsubr
          vstem
          549.9900054931641 103 callsubr
          -30 callsubr
          -104 152 -140 97.00999450683594 -58 56 66 callsubr
          -438.00999450683594 -1290 -106 callgsubr
        </CharString>
        <CharString name="Ohungarumlaut">
          -49 callsubr
          hstem
          -69 callgsubr
          vstem
          971 279 callgsubr
          57 -23 callsubr
          110 64 167 callgsubr
          165 58 106 rlinecurve
          -102.99000549316406 -8 callsubr
          -312 136 callsubr
          -101 89 -312 -375.00999450683594 rlineto
          -446.02000427246094 -1006 -106 callgsubr
        </CharString>
        <CharString name="Omacron">
          -49 callsubr
          56 callgsubr
          113.99000549316406 hstem
          -69 callgsubr
          vstem
          569 35 callsubr
          -457.02000427246094 -1249 -106 callgsubr
        </CharString>
        <CharString name="Oslash">
          -36 callsubr
          1328 97 callgsubr
          hstem
          -69 callgsubr
          vstem
          1153.990005493164 1388.990005493164 -90 callsubr
        </CharString>
        <CharString name="Oslashacute">
          -36 callsubr
          1328 97 callgsubr
          106.02000427246094 43 hstem
          -69 callgsubr
          vstem
          1113.990005493164 10 callgsubr
          40 -513.9900054931641 -90 callsubr
        </CharString>
        <CharString name="Otilde">
          -49 callsubr
          146.00001525878906 46 callsubr
          -69 callgsubr
          hintmask 00000000
          hintmask 11111100
          473.99000549316406 27 callsubr
          111 callgsubr
          43 63 80 hhcurveto
          hintmask 11101100
          -38 callsubr
          111 23 -145 154 hhcurveto
          248 callsubr
          110 80 94 213 callgsubr
          hvcurveto
          136 callgsubr
          70 rlineto
          -7 callsubr
          -30 -44 -76 -80 hhcurveto
          hintmask 11111100
          -98.02000427246094 144 callsubr
          hintmask 11101100
          -362 -1185 -106 callgsubr
        </CharString>
        <CharString name="P">
          70 0 43 482.97999572753906 119 788 113 31 callgsubr
          hstemhm
          1013.9799957275391 152 hintmask 00000000
          hintmask 11011000
          314 1530 80 callgsubr
          hintmask 11101000
          258 callgsubr
          hintmask 11011000
          72 callgsubr
          hintmask 11101000
          115 callgsubr
          hintmask 11011000
          202 callgsubr
        </CharString>
        <CharString name="Q">
          -358.99000549316406 210 callsubr
          204.00999450683594 114.97000122070312 -110.97999572753906 248 callgsubr
          1328 -39 callgsubr
          hstemhm
          -69 callgsubr
          hintmask 10111100
          686.9799957275391 -12 rmoveto
          370.00999450683594 50.99000549316406 251 391 -8.009994506835938 485.99000549316406 rrcurveto
          346.00999450683594 -6 -159.99000549316406 285 -321 hhcurveto
          -42 callgsubr
          hintmask 11011100
          7 -348 160 -267 298.99000549316406 -13 callsubr
          rrcurveto
          -232 -28 174 -111 188 hhcurveto
          112.00999450683594 139 20.990005493164062 36 -7 callgsubr
          hvcurveto
          117 vlineto
          -24 -60.99000549316406 70 callgsubr
          -11 -60.99000549316406 hhcurveto
          hintmask 10111100
          -148 -163 29 179 -1 hvcurveto
          -418 654.9900054931641 rmoveto
          418 -6 220 366 306.02000427246094 hhcurveto
          234 -76 callgsubr
          -187 -351.99000549316406 6 hvcurveto
          -429 53 callgsubr
          -360.02000427246094 -307.02000427246094 hhcurveto
          -227 -128 178.02000427246094 366 -5 hvcurveto
          endchar
        </CharString>
        <CharString name="R">
          146 -1 20 callgsubr
          261 callsubr
          hintmask 01110100
          798.9900054931641 303 callsubr
          -44 callgsubr
          hintmask 01101100
          -65 callgsubr
          hintmask 10110100
          -36 callgsubr
          hintmask 01110100
          -88 callgsubr
          endchar
        </CharString>
        <CharString name="Racute">
          146 -1 20 callgsubr
          124 43 261 callsubr
          hintmask 01110110
          1078.990005493164 10 callgsubr
          -280 -1224.990005493164 -84 callgsubr
        </CharString>
        <CharString name="Rcaron">
          146 -1 20 callgsubr
          129 callgsubr
          261 callsubr
          hintmask 01110110
          812.9900054931641 1613.990005493164 rmoveto
          321.99000549316406 -44 callsubr
          218 callsubr
          -14 -936 -84 callgsubr
        </CharString>
        <CharString name="Rcommaaccent">
          146 101 callsubr
          515.9900054931641 20 callgsubr
          hstemhm
          578.9900054931641 124 callgsubr
          282.00999450683594 163 hintmask 10111011
          798.9900054931641 303 callsubr
          -44 callgsubr
          hintmask 10110111
          -65 callgsubr
          hintmask 11011011
          -36 callgsubr
          hintmask 10111011
          -88 callgsubr
          98 callsubr
          -828.9900054931641 rmoveto
          -94 -91 -35 callsubr
          -41 rlineto
          -78 callgsubr
          -75.99000549316406 25 vhcurveto
          endchar
        </CharString>
        <CharString name="S">
          22 callgsubr
          190 callgsubr
          70.97999572753906 111 callsubr
          -103 callgsubr
          endchar
        </CharString>
        <CharString name="Sacute">
          22 callgsubr
          107 43 190 callgsubr
          628.9799957275391 -15 callgsubr
          -558 -1458 -103 callgsubr
          endchar
        </CharString>
        <CharString name="Scaron">
          22 callgsubr
          66.989990234375 116 190 callgsubr
          362.99000549316406 -8 callgsubr
          295 callsubr
          49 callgsubr
          -244 270 -74 callgsubr
          -74 callgsubr
          rlineto
          -292 -1736.990005493164 -103 callgsubr
          endchar
        </CharString>
        <CharString name="Scedilla">
          -66 -464.99000549316406 149 callgsubr
          246 callgsubr
          116.97999572753906 -113.989990234375 -76 callgsubr
          1329 116 203 callsubr
          43.00999450683594 131 253 156.99000549316406 hintmask 11011010
          654.9900054931641 1431 rmoveto
          -98 callsubr
          23 callsubr
          vhcurveto
          110 callsubr
          -123 rlineto
          hintmask 11011110
          41.99000549316406 -35 144.02000427246094 -47.97999572753906 157.99000549316406 -5 rrcurveto
          6 -6 callgsubr
          2 -76 callsubr
          -42 vvcurveto
          75 callgsubr
          -70 -23 callsubr
          -100 110 callgsubr
          -28.020004272460938 9.020004272460938 -41 callgsubr
          -17 vhcurveto
          -41 callsubr
          -115 rlineto
          -16 22 71 -13 53 hhcurveto
          -28 callgsubr
          120.02000427246094 69 215 hvcurveto
          hintmask 10111110
          71 -11.020004272460938 1 callgsubr
          -18 42 vhcurveto
          257 23 187 144 -5 256 -40 callgsubr
          208 -165 111 -142 93 rrcurveto
          hintmask 11011010
          -162 107.00999450683594 -116 -52 callsubr
          5 182 rrcurveto
          56 callgsubr
          6 188 -4 callgsubr
          123 hhcurveto
          endchar
        </CharString>
        <CharString name="Scircumflex">
          22 callgsubr
          105.00999450683594 43 -42.02000427246094 43 hstemhm
          42 callgsubr
          hintmask 11011100
          349.97999572753906 1652.979995727539 rmoveto
          225 callgsubr
          hintmask 11101100
          -9 callgsubr
          -204.99000549316406 348 rlineto
          -136 hlineto
          hintmask 11011100
          67 callgsubr
          rlineto
          -279 -1456.990005493164 -103 callgsubr
          endchar
        </CharString>
        <CharString name="Scommaaccent">
          -66 101 callsubr
          501 117.99000549316406 1328.990005493164 116 203 callsubr
          247 callgsubr
          124 callgsubr
          251.00999450683594 156.99000549316406 hintmask 11110100
          70.97999572753906 111 callsubr
          -103 callgsubr
          hintmask 11111100
          226 -379.97999572753906 rmoveto
          42 -17 30 -45 callgsubr
          -94 -91 198 callsubr
          -41 rlineto
          endchar
        </CharString>
        <CharString name="T">
          12 0 154 callsubr
          195 callgsubr
          588.9799957275391 1419 -62 callsubr
          endchar
        </CharString>
        <CharString name="Tbar">
          12 0 43 689.9900054931641 99.97999572753906 581.5200042724609 115.5 195 callgsubr
          1181.979995727539 243 callsubr
          17 -39 callgsubr
          rlineto
          -1043.990005493164 hlineto
          -17 -120.00999450683594 450.99000549316406 9.009994506835938 -73.99000549316406 -586.0200042724609 rlineto
          -283 hlineto
          -13 -99.99000549316406 rlineto
          283 hlineto
          -92 -733 rlineto
          150 hlineto
          92 733 rlineto
          309 hlineto
          13 99.99000549316406 rlineto
          -309 hlineto
          73.99000549316406 586.0200042724609 443 -55 callsubr
          rlineto
          endchar
        </CharString>
        <CharString name="Tcaron">
          12 0 154 callsubr
          129 callgsubr
          195 callgsubr
          409.99000549316406 -8 callgsubr
          322 49 callgsubr
          -244 270 -74 callgsubr
          -74 callgsubr
          rlineto
          179 -513.9900054931641 -62 callsubr
          endchar
        </CharString>
        <CharString name="Thorn">
          85 0 43 242.97999572753906 118 763.010009765625 -76 callgsubr
          208.04998779296875 139 callsubr
          973.9799957275391 152 vstem
          1125.990005493164 886.9900054931641 rmoveto
          260 -3.0200042724609375 -154.99000549316406 134 -292 hhcurveto
          -82 74 callsubr
          -10 -5 263 callgsubr
          hvcurveto
          33 264 rlineto
          -150 32 callgsubr
          150 hlineto
          37 296.97999572753906 rlineto
          -4 230 callsubr
          65 -7 106 hhcurveto
          367 254 230 371 -5 hvcurveto
          -152 -13 rmoveto
          -4 -296 -154 -170.99000549316406 -300.99000549316406 -3 rrcurveto
          -71 -81 -28 callsubr
          6.9799957275390625 -39 hvcurveto
          92 729.0099945068359 rlineto
          8 55 129.99000549316406 11 51 hhcurveto
          231.02000427246094 93 -114 -179.02000427246094 -2 hvcurveto
          endchar
        </CharString>
        <CharString name="U">
          -59 callgsubr
          92 callsubr
          vstem
          165.99000549316406 593 -106 callsubr
        </CharString>
        <CharString name="Uacute">
          -59 callgsubr
          124 43 92 callsubr
          vstem
          762 191 callsubr
          62 104 rlinecurve
          -94.99000549316406 91 callsubr
          -596 -1060.990005493164 -106 callsubr
        </CharString>
        <CharString name="Ubreve">
          -59 callgsubr
          106.989990234375 112 92 callsubr
          217.989990234375 104 426 99 vstem
          525.9900054931641 -20 callgsubr
          -360 -1366 -106 callsubr
        </CharString>
        <CharString name="Ucircumflex">
          -59 callgsubr
          122.00999450683594 25 callgsubr
          -86 callgsubr
          154 hintmask 11011000
          482.97999572753906 -3 callsubr
          330.02000427246094 77 callgsubr
          hintmask 11101000
          219 104 callsubr
          -316.97999572753906 -1059.990005493164 -106 callsubr
        </CharString>
        <CharString name="Udieresis">
          -59 callgsubr
          191 213.99000549316406 92 callsubr
          215 82 callsubr
          vstem
          523 -25 callgsubr
          -776 -1226 -106 callsubr
        </CharString>
        <CharString name="Ugrave">
          -59 callgsubr
          269 callsubr
          43 92 callsubr
          vstem
          530.9799957275391 103 callsubr
          169 callgsubr
          -104 151.99000549316406 -140 97.00999450683594 -58 56 66 callsubr
          -364.99000549316406 -1309.990005493164 -106 callsubr
        </CharString>
        <CharString name="Uhungarumlaut">
          -59 callgsubr
          92 callsubr
          vstem
          951.9900054931641 279 callgsubr
          57 -23 callsubr
          110 64 190 165 58 106 rlinecurve
          123 callsubr
          -8 callsubr
          -311.99000549316406 136 callsubr
          -101.00999450683594 89 -311.99000549316406 -375.00999450683594 rlineto
          -373 -1025.990005493164 -106 callsubr
        </CharString>
        <CharString name="Umacron">
          -59 callgsubr
          217.989990234375 113.99000549316406 92 callsubr
          vstem
          549.9900054931641 221 callgsubr
          33 callsubr
          197 callgsubr
          -384 -1268.990005493164 -106 callsubr
        </CharString>
        <CharString name="Uogonek">
          250 -434.99000549316406 -82 callsubr
          305 122.97999572753906 1383.0500030517578 40.96000671386719 92 callsubr
          155 -23 callgsubr
          vstem
          1169 1530 rmoveto
          -112 -890 rlineto
          -389.02000427246094 -50 -139 -145 -245 hhcurveto
          -209.99000549316406 -101 121 201.02000427246094 -4 hvcurveto
          -1 57 -12 callsubr
          -30 callsubr
          9.020004272460938 72.00999450683594 115 911.0099945068359 rcurveline
          -150 hlineto
          -119 -937 -7 -59 -6 -60 1 -52 rlinecurve
          -276.00999450683594 5 151 -162.97999572753906 292 hhcurveto
          251 callgsubr
          35.97999572753906 2 5 35 hvcurveto
          -92 -56.02000427246094 -156 57 callgsubr
          112 callsubr
          vvcurveto
          -59 51 74 callsubr
          137 28 callsubr
          -49 -54.99000549316406 -21.020004272460938 -55 hhcurveto
          -51 -36 162 callgsubr
          52 64 119.00999450683594 110 113 callgsubr
          82.97999572753906 hvcurveto
          206 69 123 186 46 357.00999450683594 62 callsubr
          rcurveline
          -146.99000549316406 hlineto
          endchar
        </CharString>
        <CharString name="Uring">
          250 -17 122.97999572753906 1377.010009765625 82 -75.96000671386719 -102 callsubr
          385.989990234375 84 hstemhm
          -86 callgsubr
          154 210.989990234375 107 396.010009765625 113 callsubr
          hintmask 10111110
          518.9799957275391 1728 rmoveto
          hintmask 11011110
          302 callgsubr
          263 callsubr
          143 callsubr
          vhcurveto
          hintmask 10111110
          -158 305 callsubr
          -83 -188.99000549316406 hvcurveto
          hintmask 11011110
          503.00999450683594 34 rmoveto
          -158 -106 -39 -112 163 callsubr
          -71 68 -8 callsubr
          79 callgsubr
          97 callgsubr
          63 callsubr
          103.02000427246094 248 callsubr
          -61 callgsubr
          -62 -92 vhcurveto
          -856 -1169 rmoveto
          -7 -59 -6 -60 1 -52 rrcurveto
          -276.00999450683594 5 151 -162.97999572753906 292 hhcurveto
          344 194.99000549316406 171.99000549316406 472 61 hvcurveto
          hintmask 10111110
          62 callsubr
          rlineto
          -146.99000549316406 hlineto
          -112 -890 rlineto
          -389.02000427246094 -50 -139 -145 -245 hhcurveto
          -209.99000549316406 -101 121 201.02000427246094 -4 hvcurveto
          -1 57 -12 callsubr
          -30 callsubr
          9.020004272460938 72.00999450683594 115 911.0099945068359 rcurveline
          -150 hlineto
          hintmask 11011110
          -119 -937 rlineto
          endchar
        </CharString>
        <CharString name="Utilde">
          -59 callgsubr
          163 46 callsubr
          -86 callgsubr
          154 hintmask 00000000
          hintmask 11111000
          454.97999572753906 27 callsubr
          111 callgsubr
          43 63 80 hhcurveto
          hintmask 11101000
          58 callsubr
          33 hvcurveto
          136 callgsubr
          70 rlineto
          -7 callsubr
          -30 -43.99000549316406 -76 -80 hhcurveto
          hintmask 11111000
          65 callsubr
          hintmask 11101000
          -288.99000549316406 -1204.990005493164 -106 callsubr
        </CharString>
        <CharString name="V">
          59 -5 43 110 callgsubr
          156.97999572753906 1337.0400085449219 159 callgsubr
          -86 callgsubr
          1109.990005493164 hintmask 10110000
          -86 callgsubr
          1530 rmoveto
          254 -1534.990005493164 161.02000427246094 1 694.9900054931641 1533.990005493164 rlineto
          -159.99000549316406 hlineto
          -478 -1096 rlineto
          hintmask 01110000
          -115 -282.00999450683594 -6 callgsubr
          282.00999450683594 -168 1096 rlineto
          hintmask 10110000
          -150 hlineto
          endchar
        </CharString>
        <CharString name="W">
          -4 callsubr
          308 callgsubr
          1715 1530 -101 callsubr
        </CharString>
        <CharString name="Wacute">
          -4 callsubr
          124 290 callgsubr
          1367 103 callsubr
          -95 -24 callsubr
          57 -51 97 49 callsubr
          348 -372.99000549316406 -101 callsubr
        </CharString>
        <CharString name="Wcircumflex">
          -4 callsubr
          122.00999450683594 25 callgsubr
          -23 callgsubr
          1718 hintmask 11011000
          1103.990005493164 1863.990005493164 rmoveto
          104 callgsubr
          58.99000549316406 73 callsubr
          330.00999450683594 77 callgsubr
          611 -333.99000549316406 -101 callsubr
        </CharString>
        <CharString name="Wdieresis">
          -4 callsubr
          191 121 callsubr
          755.9900054931641 82 callsubr
          vstem
          840.9900054931641 1721 rmoveto
          107 callsubr
          2 216 callgsubr
          40 -59.99000549316406 hhcurveto
          -23 callsubr
          -52 callgsubr
          -51 -65 -4 hvcurveto
          -57 -3 39 -41 49 hhcurveto
          420 hmoveto
          62 51 118 callgsubr
          4 37 callsubr
          2 callsubr
          hvcurveto
          -58 -1 -24 callgsubr
          -40 49 hhcurveto
          454 -191 -101 callsubr
        </CharString>
        <CharString name="Wgrave">
          -4 callsubr
          269 callsubr
          290 callgsubr
          1075 1600.979995727539 rmoveto
          1 callgsubr
          146 callgsubr
          92 callgsubr
          62 -104 151.99000549316406 -140 162 callsubr
          -58 rlinecurve
          640 -70.99000549316406 -101 callsubr
        </CharString>
        <CharString name="X">
          37 182 callsubr
          -35 1246.979995727539 vstem
          519.9900054931641 787.9900054931641 rmoveto
          -554.9900054931641 -787.9900054931641 rlineto
          182.99000549316406 hlineto
          430 655.9900054931641 274 -655.9900054931641 rlineto
          172.02000427246094 hlineto
          -348.02000427246094 757.9900054931641 536 772.0099945068359 rlineto
          -170 hlineto
          -424 -635 -255 635 rlineto
          -165.99000549316406 hlineto
          322.99000549316406 -742.0099945068359 rlineto
          endchar
        </CharString>
        <CharString name="Y">
          -27 182 callsubr
          215 callgsubr
          1108 vstem
          477.97999572753906 584.9900054931641 -94 callsubr
        </CharString>
        <CharString name="Yacute">
          -27 -80 callgsubr
          124 43 hstem
          215 callgsubr
          1108 vstem
          628.9799957275391 -15 callgsubr
          -151 -1069 -94 callsubr
        </CharString>
        <CharString name="Ycircumflex">
          -27 -80 callgsubr
          122.00999450683594 25 callgsubr
          215 callgsubr
          1108 hintmask 11011000
          349.97999572753906 1652.979995727539 rmoveto
          225 callgsubr
          hintmask 11101000
          219.02000427246094 104 callsubr
          128 -1067.990005493164 -94 callsubr
        </CharString>
        <CharString name="Ydieresis">
          -27 -80 callgsubr
          191 121 callsubr
          390.97999572753906 241 callgsubr
          vstem
          390.97999572753906 -10 callgsubr
          -76 callsubr
          -56 -51 -65 -35 callsubr
          hvcurveto
          419 hmoveto
          -58 -1 38 -40 49 hhcurveto
          -30 callsubr
          51 119 callgsubr
          -53 callsubr
          37 callsubr
          -1 hvcurveto
          -332 -1234 -94 callsubr
        </CharString>
        <CharString name="Ygrave">
          -27 -80 callgsubr
          269 callsubr
          43 hstem
          215 callgsubr
          1108 vstem
          397.99000549316406 103 callsubr
          62 -104 152 -140 162 callsubr
          -58 1 callgsubr
          66 callsubr
          80 -1317.990005493164 -94 callsubr
        </CharString>
        <CharString name="Z">
          47 0 22 callsubr
          136 callgsubr
          66 hstemhm
          132 callgsubr
          1166.990005493164 hintmask 11010000
          132 callgsubr
          69.97999572753906 rmoveto
          20.990005493164062 -69.97999572753906 rlineto
          970.0200042724609 hlineto
          21 129.99000549316406 -812 109 callsubr
          123.99000549316406 -77 callsubr
          rlineto
          hintmask 10110000
          843 1195.009994506836 rlineto
          hintmask 11010000
          53 callsubr
          66 rlineto
          -903 hlineto
          -16 -128 744 11 -151 -186 -822 -1157.020004272461 rlineto
          endchar
        </CharString>
        <CharString name="Zacute">
          47 0 22 callsubr
          136 callgsubr
          66 124 43 hstemhm
          132 callgsubr
          1166.990005493164 hintmask 11011000
          695.9900054931641 183 callgsubr
          97 59 157 136.99000549316406 62 259 callsubr
          -681 -1584 -66 callsubr
        </CharString>
        <CharString name="Zcaron">
          47 0 22 callsubr
          136 callgsubr
          66 129 callgsubr
          hstemhm
          132 callgsubr
          1166.990005493164 hintmask 11011000
          430 1932.979995727539 rmoveto
          238 -319 rlineto
          134.97999572753906 hlineto
          295 callsubr
          151 callsubr
          -415 -1863 -66 callsubr
        </CharString>
        <CharString name="Zdotaccent">
          47 0 22 callsubr
          136 callgsubr
          66 85 callsubr
          hstemhm
          666.9900054931641 56 callgsubr
          hintmask 11011000
          666.9900054931641 52 callsubr
          -4 39 -51 callgsubr
          -56.02000427246094 59 callsubr
          -652 -1735 -66 callsubr
        </CharString>
        <CharString name="a">
          20 -70 callgsubr
          43 1002.9900054931641 110 hstemhm
          81 -86 callgsubr
          hintmask 10110000
          927.9900054931641 1119.990005493164 rmoveto
          19.009994506835938 -63 -84.00999450683594 17 -66.99000549316406 hhcurveto
          -97 callgsubr
          hintmask 01110000
          -43 callsubr
          rlineto
          hintmask 10110000
          -113.00999450683594 -36 rlineto
          -503.99000549316406 -1020 -99 callsubr
        </CharString>
        <CharString name="aacute">
          20 -70 callgsubr
          43 1002.9900054931641 110 hstemhm
          81 -86 callgsubr
          hintmask 10110000
          1039.990005493164 1601.990005493164 rmoveto
          -115 104 -308.02000427246094 -400 229 callgsubr
          -55 122 73.02000427246094 262 callsubr
          70 callsubr
          rlinecurve
          -112 -482 rmoveto
          19.009994506835938 -63 -84.00999450683594 17 -66.99000549316406 hhcurveto
          -97 callgsubr
          hintmask 01110000
          -43 callsubr
          rlineto
          hintmask 10110000
          -113.00999450683594 -36 rlineto
          -503.99000549316406 -1020 -99 callsubr
        </CharString>
        <CharString name="abreve">
          20 -70 callgsubr
          43 1002.9900054931641 110 151 112 hstemhm
          81 -86 callgsubr
          180.989990234375 104 426.010009765625 99 hintmask 10111110
          1047 1649.990005493164 rmoveto
          -101 hlineto
          54 callgsubr
          -15.020004272460938 146 callsubr
          -146.99000549316406 -148 hhcurveto
          -135 231 callgsubr
          248 callsubr
          95 -11 hvcurveto
          -2 10 -1 12 -28 callsubr
          vvcurveto
          -103 hlineto
          -1 -6 0 -9.020004272460938 -5.9799957275390625 vvcurveto
          -160 88 -162 208 190 127.02000427246094 165 301 callsubr
          16 vhcurveto
          2 11.020004272460938 131 callsubr
          11 2 callsubr
          10 rrcurveto
          -333 -494 rmoveto
          -97 callgsubr
          hintmask 01111110
          -43 callsubr
          -113.00999450683594 -36 rlineto
          hintmask 10111110
          -50 callsubr
          -290 -1056.009994506836 -99 callsubr
        </CharString>
        <CharString name="acircumflex">
          20 -70 callgsubr
          43 1002.9900054931641 110 hstemhm
          81 -86 callgsubr
          hintmask 10110000
          788.9900054931641 1576 rmoveto
          187 callgsubr
          -294.00999450683594 73.00999450683594 201 callsubr
          169 callsubr
          rlineto
          -75 -420 rmoveto
          -97 callgsubr
          hintmask 01110000
          -43 callsubr
          -113.00999450683594 -36 rlineto
          hintmask 10110000
          -50 callsubr
          -290 -1056.009994506836 -99 callsubr
        </CharString>
        <CharString name="acute">
          -551 1248.990005493164 455 hstem
          57.99000549316406 422.99000549316406 vstem
          58 223 callgsubr
          63 106 callgsubr
          38 66.00999450683594 rlinecurve
          -115 239 callgsubr
          endchar
        </CharString>
        <CharString name="acute.cap">
          -584 1653.990005493164 43 hstem
          81.97999572753906 373 vstem
          81.97999572753906 -15 callgsubr
          endchar
        </CharString>
        <CharString name="adieresis">
          20 -70 callgsubr
          43 1002.9900054931641 110 256 247 callsubr
          hstemhm
          81 -86 callgsubr
          187 -59 callsubr
          218.00999450683594 -59 callsubr
          hintmask 10111110
          507.99000549316406 1411.990005493164 rmoveto
          62 51 52 -18 callsubr
          -58 hhcurveto
          -57 -52.02000427246094 -50 151 callgsubr
          -4 40 -41 50 hhcurveto
          447 213 rmoveto
          -57 -52 -50 151 callgsubr
          -35 callsubr
          40 -41 50 hhcurveto
          62 51 52 -75 callsubr
          -53 callsubr
          242 callsubr
          -36 40 -58 hhcurveto
          -240.99000549316406 -469 rmoveto
          -97 callgsubr
          hintmask 01111110
          -43 callsubr
          -113.00999450683594 -36 rlineto
          hintmask 10111110
          -50 callsubr
          -290 -1056.009994506836 -99 callsubr
        </CharString>
        <CharString name="ae">
          55 callsubr
          1088.979995727539 214 callsubr
          -93 callsubr
        </CharString>
        <CharString name="aeacute">
          55 callsubr
          1241.990005493164 1600 rmoveto
          -115 0 callsubr
          -71 callgsubr
          -153 -1498.009994506836 -93 callsubr
        </CharString>
        <CharString name="agrave">
          20 -70 callgsubr
          43 1002.9900054931641 110 hstemhm
          81 -86 callgsubr
          hintmask 10110000
          698.9799957275391 1250.979995727539 rmoveto
          65 55 132 callsubr
          397 95 callsubr
          -104 58.02000427246094 -99 190 305 callsubr
          113 callgsubr
          -65 rlinecurve
          229 -130.99000549316406 rmoveto
          19.009994506835938 -63 -84.00999450683594 17 -66.99000549316406 hhcurveto
          -97 callgsubr
          hintmask 01110000
          -43 callsubr
          rlineto
          hintmask 10110000
          -113.00999450683594 -36 rlineto
          -503.99000549316406 -1020 -99 callsubr
        </CharString>
        <CharString name="amacron">
          20 -70 callgsubr
          43 1002.9900054931641 110 280 -76 callgsubr
          hstemhm
          81 -86 callgsubr
          hintmask 10111000
          956.9900054931641 1549.990005493164 rmoveto
          197 callgsubr
          -35 callsubr
          -113.99000549316406 rlineto
          509.00999450683594 hlineto
          5 -76 callgsubr
          rlineto
          -29 -430 rmoveto
          19.009994506835938 -63 -84.00999450683594 17 -66.99000549316406 hhcurveto
          -97 callgsubr
          hintmask 01111000
          -43 callsubr
          rlineto
          hintmask 10111000
          -113.00999450683594 -36 rlineto
          -503.99000549316406 -1020 -99 callsubr
        </CharString>
        <CharString name="ampersand">
          424 -20 102.99000549316406 -99.99000549316406 63 callgsubr
          602.989990234375 112 639 102.00999450683594 hstemhm
          215 callgsubr
          155 83.010009765625 -40 callsubr
          469.99998474121094 142 38 138 hintmask 01111110
          1442.979995727539 804.9900054931641 rmoveto
          hintmask 01111111
          -314 1 rlineto
          6 callgsubr
          -49 -14.009994506835938 5 callsubr
          5 callsubr
          hvcurveto
          -55 callsubr
          -105 22.020004272460938 12 86 callsubr
          -41 callgsubr
          51 1 rlinecurve
          12 -35 11 -46 -60 vvcurveto
          -139.99000549316406 8 callgsubr
          -112 -81 -78 vhcurveto
          -149.02000427246094 137 -133 305 callgsubr
          246 callsubr
          194.99000549316406 rrcurveto
          hintmask 01111110
          228.99000549316406 123 258 121.02000427246094 262 vvcurveto
          161 callsubr
          -110 166 -228 -239 -172 -169 -241 -112 44 -146 51 -107.99000549316406 vhcurveto
          -178 -99 -155 -113.99000549316406 -193 vvcurveto
          -278 249.02000427246094 -103.99000549316406 268 138 121 27.990005493164062 53 99 vhcurveto
          hintmask 10111111
          -58.02000427246094 -12 callgsubr
          108 147 callsubr
          81 hhcurveto
          36 56 1 13 54 hvcurveto
          132 callgsubr
          93 -13 callsubr
          -35 callsubr
          -25 -1 5 callsubr
          1 rlinecurve
          123 callsubr
          -38 callsubr
          -80 17.979995727539062 -71 46.02000427246094 rrcurveto
          110 103 229 callgsubr
          150 188 vvcurveto
          45 -6 35 -8 28 vhcurveto
          181 hlineto
          hintmask 01111110
          112 callgsubr
          111 rlineto
          -962.9900054931641 336 rmoveto
          168.02000427246094 105 161 callsubr
          164 140 -35 callgsubr
          -98 -118.00999450683594 -187 -193.99000549316406 -103 -202.02000427246094 -106 vhcurveto
          -34 69 -40 232 callgsubr
          148 callsubr
          vvcurveto
          -220 -772 rmoveto
          135 100 206 callsubr
          129.99000549316406 79.02000427246094 vhcurveto
          105 -181 102.02000427246094 -162 192 -185.02000427246094 rrcurveto
          135 callsubr
          -73.02000427246094 -87 -19 -94 hhcurveto
          -204 -170.99000549316406 82 196 hvcurveto
          endchar
        </CharString>
        <CharString name="aogonek">
          42 -434.99000549316406 -82 callsubr
          306.00999450683594 115.97000122070312 -99.97999572753906 43 1002.9900054931641 110 hstemhm
          93 -86 callgsubr
          255.989990234375 148 hintmask 11011100
          738.9799957275391 176 callsubr
          -86 callgsubr
          7 callsubr
          79.00999450683594 52 vhcurveto
          12 hlineto
          157 1 callsubr
          -113 -36 rlineto
          43 callsubr
          -84 17 -58 callgsubr
          217 callsubr
          hvcurveto
          hintmask 11011100
          -257 -5 callgsubr
          -173.97000122070312 217 165.99000549316406 134 115.97000122070312 105 -12 callgsubr
          vhcurveto
          -82 callgsubr
          vlineto
          -19 -199 rlineto
          -88 -76 callsubr
          -174 -99 -140 vvcurveto
          -59 50 74 callsubr
          137 181 callsubr
          45 vhcurveto
          -40 12 callgsubr
          8 callgsubr
          -55 -21.020004272460938 -54 hhcurveto
          -302.97999572753906 421.99000549316406 rmoveto
          -123 136 callgsubr
          111 222 272 153 341.02000427246094 302 65 69 -15.020004272460938 -23 51 hvcurveto
          -64 -450.99000549316406 6 callsubr
          -185 rlineto
          -104.02000427246094 -58.97999572753906 -140 -168 -168 hhcurveto
          endchar
        </CharString>
        <CharString name="approxequal">
          -47 305.99000549316406 127 46.989990234375 149 callgsubr
          146.00999450683594 127 47 126.00999450683594 hstemhm
          -75 callsubr
          964.9900054931641 hintmask 01011000
          97 callgsubr
          855 rmoveto
          73 callgsubr
          147 callgsubr
          rlineto
          81 53 76 47 89.00999450683594 hhcurveto
          hintmask 01111000
          272 callgsubr
          107.00999450683594 93 28 hvcurveto
          -56 57 rlineto
          -64 -41 -68.02000427246094 -66 57 callgsubr
          hhcurveto
          hintmask 01011000
          -122 -70 173.02000427246094 -152 hhcurveto
          -154 -121 -118 -79 184 callsubr
          hvcurveto
          -53 -446.00999450683594 rmoveto
          55 -57 rlineto
          81 268 callgsubr
          76 47 89 hhcurveto
          hintmask 11011000
          272 callgsubr
          107 93 28 hvcurveto
          -52 callgsubr
          57 rlineto
          -64 -41 -68 136 callgsubr
          -101 hhcurveto
          hintmask 01011000
          -122 -70 173 -152 120 callsubr
          -121.02000427246094 209 callgsubr
          185 callgsubr
          184 callsubr
          hvcurveto
          endchar
        </CharString>
        <CharString name="aring">
          20 -70 callgsubr
          43 1002.9900054931641 110 104 83 355.97999572753906 84 hstemhm
          81 -86 callgsubr
          220.989990234375 107 396.010009765625 113 callsubr
          hintmask 10111111
          734.9900054931641 1259.990005493164 rmoveto
          173 160 87 186 158 -104 92 -166 -157.97999572753906 305 callsubr
          -88 -188 -154.99000549316406 101 -92 178 hvcurveto
          51 438.99000549316406 rmoveto
          106 -61 callgsubr
          -60.99000549316406 -92 -157 -106 -46 -112 163 callsubr
          -71 68 206 callsubr
          79 callgsubr
          97 callgsubr
          46.97999572753906 103 hvcurveto
          6 callgsubr
          -542.9900054931641 rmoveto
          -97 callgsubr
          hintmask 01111111
          -43 callsubr
          -113.00999450683594 -36 rlineto
          hintmask 10111111
          -50 callsubr
          -290 -1056.009994506836 -99 callsubr
        </CharString>
        <CharString name="asciicircum">
          248 1384.979995727539 265 callsubr
          -40.959991455078125 159 callgsubr
          185.99000549316406 937.9799957275391 hintmask 01100000
          704 1530 rmoveto
          -518 -1020 rlineto
          250 callsubr
          hlineto
          hintmask 10100000
          446.02000427246094 874.9900054931641 226 -874.9900054931641 rlineto
          130.99000549316406 hlineto
          -267 1020 rlineto
          hintmask 01100000
          -152.99000549316406 hlineto
          endchar
        </CharString>
        <CharString name="asciitilde">
          27 740.9799957275391 127 47 126.00999450683594 hstemhm
          139.97999572753906 912.0200042724609 hintmask 01100000
          139.97999572753906 843.9799957275391 rmoveto
          55 -57 rlineto
          81 53 76 47 89 hhcurveto
          hintmask 11100000
          121 70 -174 152.99000549316406 hhcurveto
          151 116.02000427246094 107 93 28 hvcurveto
          -56.02000427246094 57 rlineto
          -64 -41 -68 136 callgsubr
          -101 hhcurveto
          hintmask 01100000
          -122 -70 173.02000427246094 -151.99000549316406 hhcurveto
          -154 -121 -118 185 callgsubr
          249 callsubr
          hvcurveto
          endchar
        </CharString>
        <CharString name="asterisk">
          256 1105.0299987792969 -102 callsubr
          -39.97001647949219 159 callgsubr
          695.9900054931641 65.5 -57.52000427246094 64.02000427246094 hintmask 01010000
          239.97999572753906 960 rmoveto
          59 -129 rlineto
          hintmask 10100000
          269 169.99000549316406 128 95 -36 -146 -52 -302 151 -1 7 303 -55 callsubr
          146 105 -97 227 -172 88 126.02000427246094 -254 135 -129 58 145 58 284 250 callsubr
          -59 128 rlineto
          hintmask 01010000
          -267 -171.99000549316406 -128.97999572753906 -95.00999450683594 111 callgsubr
          150 51 303 rlineto
          97 callsubr
          hlineto
          -7 -303 6 -150 -109 95.00999450683594 -233 176 -87 -127 259.99000549316406 -139.02000427246094 134 -58 -146 -57 -286 -129.99000549316406 rlineto
          endchar
        </CharString>
        <CharString name="at">
          858 -439.99000549316406 106.99000549316406 337.99000549316406 117 -114 251 callsubr
          853.989990234375 97.00999450683594 352 101 hstemhm
          121 117 304.97999572753906 74 callgsubr
          498.02000427246094 135 437 117.99000549316406 hintmask 1101111110000000
          1188.990005493164 1544.990005493164 rmoveto
          -589.9900054931641 -478 -448 -724.0099945068359 -516.9700012207031 87 callgsubr
          -296 449 174 162 47.99000549316406 68.02000427246094 90.00999450683594 hvcurveto
          187 callsubr
          76 rlineto
          -35 -64 -180.99000549316406 -50 -144.02000427246094 hhcurveto
          -363.99000549316406 -307 216 507.97999572753906 554 368.99000549316406 499 554 332 258 -150 -429 hvcurveto
          hintmask 1011111110000000
          -372 -218 -352.00999450683594 -180 -31.009994506835938 186 callsubr
          34 30 41 6 97.00999450683594 200 callsubr
          103 vhcurveto
          26.009994506835938 203 47 297 callsubr
          41 154 -128 -24 rcurveline
          36 -56 -118.99000549316406 18 -58 hhcurveto
          -370.00999450683594 -167 -367 -291 -6 hvcurveto
          hintmask 1101111110000000
          -297 -6 152 -132 135 hhcurveto
          158 74 callgsubr
          237 218.99000549316406 91 hvcurveto
          -17 -88.99000549316406 5 callsubr
          -104.02000427246094 -54.99000549316406 vvcurveto
          hintmask 1011111110000000
          -105 5 -100 94 260 331 332 549.0099945068359 vhcurveto
          hintmask 1101111110000000
          400 -261 256 -419 vhcurveto
          -342 -1423 rmoveto
          -104 131 callsubr
          -62 120.02000427246094 56 callgsubr
          vvcurveto
          247 139.02000427246094 303 260 0.9799957275390625 vhcurveto
          59 105 -23.979995727539062 -7 callsubr
          -24 callgsubr
          hvcurveto
          -68 -303.97999572753906 -219.02000427246094 -501 97 callsubr
          1 rrcurveto
          endchar
        </CharString>
        <CharString name="atilde">
          20 -70 callgsubr
          43 1002.9900054931641 110 224.989990234375 124 21 123 hstemhm
          81 -86 callgsubr
          hintmask 10110100
          1035 1622 rmoveto
          -7 callsubr
          167 callsubr
          -41.97999572753906 6 callgsubr
          -80.02000427246094 hhcurveto
          hintmask 10111100
          158 callsubr
          -103 -118 -83 -82.99000549316406 110 callsubr
          hvcurveto
          68 -65 rlineto
          63 callsubr
          37 44 65 75 hhcurveto
          hintmask 10110100
          -38 callsubr
          -76 callgsubr
          69 callgsubr
          -143 154.99000549316406 hhcurveto
          106 111 79.00999450683594 92 212 callsubr
          hvcurveto
          146 callsubr
          70 rlineto
          -321 -466 rmoveto
          -97 callgsubr
          hintmask 01110100
          -43 callsubr
          -113.00999450683594 -36 rlineto
          hintmask 10110100
          -50 callsubr
          -290 -1056.009994506836 -99 callsubr
        </CharString>
        <CharString name="b">
          49 -83 callgsubr
          194 callsubr
          hstem
          905.9900054931641 -86 callgsubr
          vstem
          267 callgsubr
          1155.990005493164 15 callsubr
          84.00999450683594 26.009994506835938 rlineto
          -23 63 100 -27 callgsubr
          76.97999572753906 -73 callsubr
        </CharString>
        <CharString name="backslash">
          -256 -362 188 callgsubr
          hstem
          45.99000549316406 708.9900054931641 vstem
          755 -362 rmoveto
          -133 hlineto
          -576 188 callgsubr
          rlineto
          132 hlineto
          577 -1958.990005493164 rlineto
          endchar
        </CharString>
        <CharString name="bar">
          138 callgsubr
          -1965.990005493164 131 1965.990005493164 -131 vlineto
          endchar
        </CharString>
        <CharString name="braceleft">
          -86 -159 104 1661.979995727539 103.00999450683594 -35.989990234375 43 hstemhm
          161.99000549316406 816.9799957275391 hintmask 10110000
          395 578.9900054931641 rmoveto
          0 7 callgsubr
          -605.9799957275391 -21.020004272460938 vvcurveto
          -87 -2 35 -24 7 callsubr
          hhcurveto
          110 73 15.020004272460938 20.990005493164062 91.00999450683594 hvcurveto
          0 7 57 68 callsubr
          11 vhcurveto
          231 callsubr
          hlineto
          93.99000549316406 631 7 -48 callgsubr
          -21 37 -40 230 callsubr
          rlinecurve
          -34 28 147 callgsubr
          31 -64 29 22.020004272460938 5 248 callsubr
          46 34 17 65 32 35 38.99000549316406 -28 callsubr
          54 rrcurveto
          hintmask 11010000
          113 callgsubr
          637.9900054931641 rlineto
          276.00999450683594 hlineto
          hintmask 10110000
          14.009994506835938 9.990005493164062 53 0 vhcurveto
          hintmask 11010000
          0 -175 36 -88.99000549316406 112 callsubr
          -37 -41 -150.02000427246094 -23 vhcurveto
          -82 -551 -5 -29 -23 -27 -51 -22 rlinecurve
          -52 -24 -78.00999450683594 -23 -69 -18 -13 callsubr
          -97.02000427246094 rcurveline
          -30 callsubr
          -17 64 147 callsubr
          47 -28 rrcurveto
          hintmask 10110000
          36 -21.009994506835938 163 callgsubr
          147 callsubr
          -38 callsubr
          -31 rrcurveto
          endchar
        </CharString>
        <CharString name="braceright">
          -86 -164 102.99000549316406 1661.989990234375 104 -35.97999572753906 43 hstemhm
          93 816.9799957275391 hintmask 10110000
          676.9900054931641 966.9799957275391 rmoveto
          hintmask 11010000
          0 90.00999450683594 606 21.009994506835938 vvcurveto
          87 68 callsubr
          -35 23.990005493164062 -95.99000549316406 hhcurveto
          -110 263 callgsubr
          -15 -27 callgsubr
          185 callsubr
          hvcurveto
          0 -7 147 callgsubr
          -2 -11 vhcurveto
          275.00999450683594 hlineto
          -94 -630.9900054931641 296 callsubr
          -44 21 296 callgsubr
          40 -31.009994506835938 rlinecurve
          34 -28 57 -31 64 -29 -22 -5 -106 -46 -34 -17 -65 -32 -35 -39 186 callsubr
          -54 70 callgsubr
          -637.9900054931641 rcurveline
          -275.99000549316406 hlineto
          -13 callsubr
          -10 -53 0 vhcurveto
          0 174.99000549316406 -36 89 119.00999450683594 111 callgsubr
          41 270 callsubr
          23 vhcurveto
          82 551 5 29 23 27.009994506835938 78 callsubr
          22 rlinecurve
          52 24 -52 callsubr
          23 207 callsubr
          18 13.990005493164062 97 rcurveline
          -62 17 -64 26 -47 28 rrcurveto
          hintmask 10110000
          -36 20.990005493164062 187 callsubr
          26.009994506835938 2 230 callsubr
          rrcurveto
          endchar
        </CharString>
        <CharString name="bracketleft">
          -256 -171.99000549316406 104 1674.9700012207031 103.00999450683594 -36.99998474121094 43 hstemhm
          193.99000549316406 667.9900054931641 hintmask 00000000
          hintmask 11010000
          407 1518.979995727539 rmoveto
          -44 -337 -150 -889 -16 -272 rrcurveto
          -2 -30.979995727539062 -1 -27.020004272460938 -27 vvcurveto
          -83 35 -24.990005493164062 95 113 callgsubr
          115.02000427246094 17 18.990005493164062 85 vhcurveto
          7 66 rlineto
          -64 -167.02000427246094 2 114 callgsubr
          hhcurveto
          229.99000549316406 1674.9700012207031 rlineto
          292 hlineto
          hintmask 10110000
          -41 callgsubr
          66.00999450683594 rlineto
          hintmask 11010000
          1 -22 -161 36 70 callgsubr
          hhcurveto
          -121 -36 -7 callsubr
          -146 53 callsubr
          hvcurveto
          endchar
        </CharString>
        <CharString name="bracketright">
          -256 -154 103.00999450683594 1674.9700012207031 104.00999450683594 hstem
          73 callgsubr
          667.9900054931641 vstem
          509.99000549316406 111 callgsubr
          rmoveto
          -48 callgsubr
          337 79 callgsubr
          889 15.990005493164062 272.02000427246094 rrcurveto
          68 callsubr
          230 callsubr
          1 27.020004272460938 300 callsubr
          vvcurveto
          83 -35 252 callgsubr
          211 callgsubr
          70 callgsubr
          -115 -17.020004272460938 53 callsubr
          229 callsubr
          vhcurveto
          296 callsubr
          136 callgsubr
          rlineto
          64 167 -2 65 hhcurveto
          -230 -1674.979995727539 rlineto
          -291.97999572753906 hlineto
          -9.020004272460938 -66 rlineto
          -1 22 161.02000427246094 -36 113 callgsubr
          hhcurveto
          121 36 298 callgsubr
          301 callsubr
          19 hvcurveto
          endchar
        </CharString>
        <CharString name="breve">
          -393 1304.979995727539 225 callsubr
          1626.990005493164 rmoveto
          166 callgsubr
          167 callgsubr
          227 callsubr
          1 11 -1 9.990005493164062 rrcurveto
          -101 hlineto
          88 callsubr
          -15 10 callsubr
          123 callsubr
          hlineto
          2 callsubr
          -6 0 109 callsubr
          -6 vvcurveto
          endchar
        </CharString>
        <CharString name="breve.cap">
          -395 1636.979995727539 225 callsubr
          1958.990005493164 rmoveto
          166 callgsubr
          167 callgsubr
          227 callsubr
          1 11 -1 10 rrcurveto
          -101 hlineto
          88 callsubr
          -15 10 callsubr
          123 callsubr
          287 callgsubr
          endchar
        </CharString>
        <CharString name="brokenbar">
          138 callgsubr
          -894.0099945068359 131 894.0099945068359 -131 vlineto
          -1072 vmoveto
          -893.9900054931641 131 893.9900054931641 -131 vlineto
          endchar
        </CharString>
        <CharString name="bullet">
          -252 556.9900054931641 333.97999572753906 hstem
          281.97999572753906 330.99000549316406 vstem
          281.97999572753906 692.9799957275391 rmoveto
          -75 59 -60.99000549316406 -52 callsubr
          118.00999450683594 76 108 93 77 -58 1 callgsubr
          -77.99000549316406 -110.02000427246094 -85 -105 -93 vhcurveto
          endchar
        </CharString>
        <CharString name="c">
          -33 callgsubr
          hstemhm
          87 callsubr
          152 hintmask 11010000
          663.9799957275391 1155.990005493164 -95 callsubr
          hintmask 10110000
          -42 callsubr
          128 rlineto
          hintmask 11010000
          29 -57 7 callgsubr
          12 -72 hhcurveto
          endchar
        </CharString>
        <CharString name="cacute">
          -33 callgsubr
          hstemhm
          87 callsubr
          152 hintmask 11010000
          564.9799957275391 48 callgsubr
          99 97 callsubr
          -95 callsubr
          hintmask 10110000
          -42 callsubr
          128 rlineto
          hintmask 11010000
          29 -57 7 callgsubr
          12 -72 hhcurveto
          endchar
        </CharString>
        <CharString name="caron">
          -315 1284.990005493164 116 hstem
          266 callgsubr
          711.9799957275391 vstem
          266 callgsubr
          77 callsubr
          -58 callgsubr
          -74 callgsubr
          rlineto
          endchar
        </CharString>
        <CharString name="caron.cap">
          -317 1613.979995727539 116 hstem
          86 callsubr
          694.9799957275391 vstem
          86 callsubr
          -8 callgsubr
          321.99000549316406 151 callsubr
          endchar
        </CharString>
        <CharString name="caronvertical">
          -795 1037.979995727539 642 hstem
          267.97999572753906 139.00999450683594 vstem
          197 1088 rmoveto
          4 6 callsubr
          78 -30 70 263 callsubr
          268 callgsubr
          168 5.0200042724609375 -28 callgsubr
          rlinecurve
          -88 callsubr
          162 callsubr
          -40 callgsubr
          81 -27.020004272460938 52 257 callsubr
          -79 -3 193 callgsubr
          69 callsubr
          -88.99000549316406 rrcurveto
          endchar
        </CharString>
        <CharString name="ccaron">
          -33 callgsubr
          129 116 hstemhm
          87 callsubr
          152 hintmask 11011000
          372.97999572753906 77 callsubr
          -74 callgsubr
          -67.00999450683594 rlineto
          291 -456.99000549316406 -95 callsubr
          hintmask 10111000
          -42 callsubr
          128 rlineto
          hintmask 11011000
          29 -57 7 callgsubr
          12 -72 hhcurveto
          endchar
        </CharString>
        <CharString name="ccedilla">
          -199 -462 126.00999450683594 322.99000549316406 43 -42 43 -43 110 945.9799957275391 260 callgsubr
          87 callsubr
          152 177 130.99000549316406 hintmask 10101011
          649.9900054931641 1043.990005493164 rmoveto
          71.99000549316406 72 -17 -40 50 hvcurveto
          hintmask 10100111
          -42 callsubr
          128 rlineto
          hintmask 11001011
          29 -57 7 callgsubr
          12 -72 hhcurveto
          -379.99000549316406 -195 -408 -315 -258 111 -165.99000549316406 210 -21.990005493164062 hvcurveto
          6 -39 2 -49 110 callsubr
          vvcurveto
          -143 36 callsubr
          -20 95 callsubr
          rlineto
          -16 22.020004272460938 198 callgsubr
          -13 53 hhcurveto
          143 120 207 callsubr
          215 hvcurveto
          hintmask 10101011
          70 -11 73 callgsubr
          -17 41 vhcurveto
          148 20.990005493164062 104.99000549316406 113 callgsubr
          298 callgsubr
          58 rrcurveto
          hintmask 10011011
          -23 callsubr
          82 rlineto
          -86 -87 -84.99000549316406 -60.99000549316406 -114.02000427246094 hhcurveto
          -158.99000549316406 -83 109 241 hvcurveto
          hintmask 10101011
          50 callsubr
          vhcurveto
          endchar
        </CharString>
        <CharString name="ccircumflex">
          -33 callgsubr
          hstemhm
          87 callsubr
          152 hintmask 11010000
          344.99000549316406 16 callgsubr
          -203 377.02000427246094 rlineto
          -137.02000427246094 239 callsubr
          319 -178 -95 callsubr
          hintmask 10110000
          -42 callsubr
          128 rlineto
          hintmask 11010000
          29 -57 7 callgsubr
          12 -72 hhcurveto
          endchar
        </CharString>
        <CharString name="cdotaccent">
          -33 callgsubr
          273 103 callgsubr
          87 callsubr
          152 340.989990234375 300 callgsubr
          hintmask 11011100
          581.9799957275391 1527.990005493164 rmoveto
          -57 -4 39 -42 78 callsubr
          hhcurveto
          14 callgsubr
          -3 hvcurveto
          82 -372 -95 callsubr
          hintmask 10111100
          -42 callsubr
          128 rlineto
          hintmask 11011100
          29 -57 7 callgsubr
          12 -72 hhcurveto
          endchar
        </CharString>
        <CharString name="cedilla">
          -631 -464.99000549316406 149 callgsubr
          hstem
          280.97999572753906 131 vstem
          323.99000549316406 163 callgsubr
          rmoveto
          -59 -40 callgsubr
          rlineto
          12 -38.99000549316406 4 -71 -58 vvcurveto
          75 callgsubr
          -70 -23 callsubr
          -100 110 callgsubr
          177 callgsubr
          -28 callgsubr
          120.02000427246094 69 215 93 -19 66 -28 -48 callgsubr
          hvcurveto
          -41 -12 callsubr
          rlineto
          endchar
        </CharString>
        <CharString name="cent">
          -53 90 callsubr
          -104 43 1006.9799957275391 111 -111 313.99000549316406 -243.94000244140625 159 callgsubr
          139.97999572753906 152 hintmask 10100100
          700.9900054931641 1043.990005493164 rmoveto
          72.00999450683594 71.99000549316406 -17 -40 146 callgsubr
          hvcurveto
          hintmask 10001100
          39 128 rlineto
          hintmask 10100100
          -49 25 -75 200 callsubr
          146 callsubr
          2 rrcurveto
          hintmask 01010100
          86 callsubr
          203 rlineto
          -116 hlineto
          -50 -209 rlineto
          -323.00999450683594 -57 -165 -369.00999450683594 -290 vvcurveto
          -238 95 -160.02000427246094 179 -40.97999572753906 vhcurveto
          hintmask 10100100
          -39 -209 rlineto
          115 hlineto
          37 199 171.99000549316406 7 121.02000427246094 107.97000122070312 50 64 rlinecurve
          -50 82 rlineto
          -86 -87 229 callsubr
          -60.99000549316406 -113.99000549316406 hhcurveto
          -159 -83 109 241 50 callsubr
          hvcurveto
          endchar
        </CharString>
        <CharString name="circumflex">
          -315 1274.979995727539 435.02000427246094 hstem
          164 callgsubr
          682.9799957275391 vstem
          164 callgsubr
          1333.990005493164 rmoveto
          59 -59 298 callsubr
          169 callsubr
          -60 callgsubr
          rlineto
          endchar
        </CharString>
        <CharString name="circumflex.cap">
          -315 1652 25 callgsubr
          50.99000549316406 681 hintmask 01100000
          51 43 callgsubr
          hintmask 10100000
          218.99000549316406 -264.99000549316406 73.02000427246094 53 -205 348 rlineto
          -136 hlineto
          hintmask 01100000
          -339.99000549316406 -347.00999450683594 rlineto
          endchar
        </CharString>
        <CharString name="colon">
          -607 -17 43 -43 95 callgsubr
          611.989990234375 220.00999450683594 hstemhm
          302 callsubr
          210 -113 210 hintmask 00000000
          hintmask 10101000
          302.97999572753906 1035 66 callgsubr
          -4 callgsubr
          -35 50 hhcurveto
          -69 callsubr
          46 298 callgsubr
          82.99000549316406 2 hvcurveto
          52 1 -25.009994506835938 -4 callgsubr
          -65 hhcurveto
          hintmask 01110000
          -97 -832 40 callsubr
        </CharString>
        <CharString name="colonmonetary">
          217 1494.0299987792969 139 callsubr
          173.99000549316406 1106.979995727539 vstem
          546.9700012207031 5 rmoveto
          -70.97999572753906 -358.99000549316406 rlineto
          -91.02000427246094 hlineto
          209 callsubr
          393.99000549316406 rlineto
          -206 -82 callsubr
          -82.99000549316406 259.00999450683594 240.99000549316406 vvcurveto
          454 239 295 callsubr
          342 206 callsubr
          vhcurveto
          59 295.02000427246094 rlineto
          91 hlineto
          -55 -276 rlineto
          -12 callsubr
          35 36 3 36 hhcurveto
          20.009994506835938 18.990005493164062 -1 -1 19 hvcurveto
          54 271.00999450683594 rlineto
          -8 callsubr
          hlineto
          -52 callgsubr
          -280 76 -11 57 -17.020004272460938 45 5 callsubr
          rlinecurve
          8 callgsubr
          -121 -23 16 -52 69 callgsubr
          -76 11.979995727539062 rlinecurve
          -261 -1317.990005493164 -40 callsubr
          132 callgsubr
          7 callsubr
          -4 callgsubr
          75.99000549316406 51 rlinecurve
          43 -97.00999450683594 -59 -60.99000549316406 -143 -49 -173 -12.979995727539062 rlinecurve
          -74 callgsubr
          -342 rlineto
          74 callsubr
          hlineto
          -75 callsubr
          338 rlineto
          -9 hlineto
          -56 -50 112 callgsubr
          13 -7 callsubr
          hvcurveto
          280 1418 rmoveto
          -256 -1297 rlineto
          -19 44 50 -10 55 hhcurveto
          9 hlineto
          264 1333 rlineto
          1 6 callsubr
          -27 callgsubr
          131 callsubr
          -21.020004272460938 hhcurveto
          -35.97999572753906 -35 -82 callgsubr
          -6 167 callsubr
          hvcurveto
          -95.99000549316406 -25 rmoveto
          -241 -88 -151 -256.97999572753906 -5 -376.00999450683594 -82 callgsubr
          -210 45 -187.99000549316406 -76 callgsubr
          -101 241 1220 rcurveline
          endchar
        </CharString>
        <CharString name="comma">
          -607 -500.99000549316406 43 hstem
          305 callgsubr
          159 vstem
          -8 callsubr
          127 -14 callsubr
        </CharString>
        <CharString name="copyright">
          951 -8 callsubr
          100 276.989990234375 121 704 269 callsubr
          273.00001525878906 164 callgsubr
          hstem
          111 callsubr
          110 300.989990234375 148 1012.010009765625 -54 callgsubr
          49 1223 rmoveto
          -309 -170 -211 -270.00999450683594 1 hvcurveto
          -245.99000549316406 158 -219.02000427246094 267 130 118.00999450683594 41 52 63 vhcurveto
          -36 95.00999450683594 rlineto
          -35 -58 -94 -32 -103 hhcurveto
          -169 -128 122 233 193 -82 callsubr
          156 203 95 74 -23.990005493164062 -31 50 hvcurveto
          27 148 callsubr
          rlineto
          19 -39 -78.00999450683594 32 -115 hhcurveto
          endchar
        </CharString>
        <CharString name="currency">
          404 251.99000549316406 102.00999450683594 671.9799957275391 102.00999450683594 -32.970001220703125 -102 callsubr
          -27.960006713867188 159 callgsubr
          325.97999572753906 232 callgsubr
          652.0000152587891 -76 callgsubr
          hintmask 10011100
          1205.990005493164 689.9900054931641 rmoveto
          hintmask 10101100
          113 callgsubr
          98 callsubr
          89 -52.02000427246094 72.00999450683594 vhcurveto
          189 199 callsubr
          rlineto
          hintmask 11001100
          -87 87 -187 -187.99000549316406 rlineto
          58 -75 -94 35 -103 hhcurveto
          -97 -90 -31 -54 -73 hvcurveto
          hintmask 10011100
          -192 193 -87.02000427246094 -87 191.02000427246094 -191 rlineto
          -58 -74 216 callgsubr
          -93 -101 vvcurveto
          -102.00999450683594 35 212 callgsubr
          59 -75.02000427246094 vhcurveto
          168 callsubr
          168 callsubr
          87 -86 191 191 rlineto
          -51 -12 callgsubr
          87 callsubr
          -31 7 callsubr
          hhcurveto
          100 92 33 73 callgsubr
          74 hvcurveto
          191 -191 87 86 -192 192 rlineto
          55 -12 callgsubr
          33 91 99 vvcurveto
          -440 -336 rmoveto
          -180 -146 151 185 hvcurveto
          hintmask 11001100
          185 146 151 180 181 145 -151 -185 vhcurveto
          hintmask 10011100
          -185 -145 -151 -181 vhcurveto
          endchar
        </CharString>
        <CharString name="d">
          39 -70 callgsubr
          43 1003.9900054931641 113 callsubr
          hstemhm
          -37 callsubr
          hintmask 10110000
          965.9799957275391 281 callsubr
          262 callgsubr
          -92 callsubr
          hintmask 01110000
          3 callsubr
          hintmask 10110000
          -148 hlineto
          -542.9900054931641 -1537 -89 callsubr
        </CharString>
        <CharString name="dagger">
          -295 1145.990005493164 139 callgsubr
          74 callgsubr
          734.9799957275391 vstem
          409.99000549316406 1007.9799957275391 rmoveto
          -104 -856.9900054931641 rlineto
          -8 callsubr
          hlineto
          158 856.9900054931641 12 138.02000427246094 rlineto
          291 hlineto
          16 114 rlineto
          -307 hlineto
          56 209 29 177 rlineto
          -144.02000427246094 hlineto
          147 callsubr
          -177 -11 -209 rlineto
          -316.00999450683594 hlineto
          -16 -114 rlineto
          298.99000549316406 hlineto
          -27 -138.02000427246094 rlineto
          endchar
        </CharString>
        <CharString name="daggerdbl">
          -295 649.5 114.47999572753906 382.010009765625 -76 callgsubr
          hstemhm
          403.97999572753906 165 -85.489990234375 376.99000549316406 hintmask 11100000
          343.97999572753906 509.99000549316406 rmoveto
          -52 -560.9900054931641 rlineto
          88 hlineto
          88 callgsubr
          560.9900054931641 200 callsubr
          139 240 1 16 114 rlineto
          -248 hlineto
          54 217 12 165 rlineto
          hintmask 11010000
          276.99000549316406 hlineto
          17 114 rlineto
          hintmask 11100000
          132 callsubr
          hlineto
          73 callgsubr
          209 28 177 rlineto
          -144 hlineto
          147 callsubr
          -177 -55 callsubr
          -209 rlineto
          -286.97999572753906 hlineto
          -16.020004272460938 -114 rlineto
          271.02000427246094 hlineto
          -6 callgsubr
          -165 186 callsubr
          -217 rlineto
          -251 hlineto
          -18 -114 211 callsubr
          -1 -29 -139 rlineto
          endchar
        </CharString>
        <CharString name="dcaron">
          319 -70 callgsubr
          43 1003.9900054931641 113 callsubr
          hstemhm
          -37 callsubr
          1064.009994506836 210 callsubr
          hintmask 10111000
          1408 1658 rmoveto
          -133.02000427246094 -35 296 callsubr
          170 callsubr
          -5.0200042724609375 -122 -34 -122 69 callsubr
          -89.00999450683594 4 -41 callsubr
          rcurveline
          209 callsubr
          -30 70 101 53 168 5 -28 callgsubr
          rlinecurve
          -88 callsubr
          97 -4 283 callsubr
          rrcurveto
          -512 -527.0099945068359 rmoveto
          -92 callsubr
          hintmask 01111000
          3 callsubr
          -148 hlineto
          hintmask 10111000
          262 callgsubr
          -473.00999450683594 -1031 -89 callsubr
        </CharString>
        <CharString name="dcroat">
          39 -70 callgsubr
          43 1003.9900054931641 113 callsubr
          135.99998474121094 100 hstemhm
          -37 callsubr
          hintmask 10111000
          1223.990005493164 1391.979995727539 rmoveto
          -144 hlineto
          34 245 271 callgsubr
          -34 -245 rlineto
          -290 hlineto
          -13 -100 rlineto
          290.02000427246094 hlineto
          -23 -161 rlineto
          -92 callsubr
          hintmask 01111000
          -20 -207.99000549316406 rlineto
          132 hlineto
          306 callgsubr
          1291.979995727539 rlineto
          144 hlineto
          hintmask 10111000
          13 100 rlineto
          -801 -1292 -89 callsubr
        </CharString>
        <CharString name="degree">
          -211 954.9799957275391 93 458.99000549316406 93.02000427246094 hstem
          146.97999572753906 88 callgsubr
          437.99000549316406 88 callgsubr
          vstem
          146.97999572753906 1279 rmoveto
          -177 -82 callgsubr
          137 -147 182 hhcurveto
          167 callgsubr
          145 139 185.02000427246094 3 hvcurveto
          306 callgsubr
          -88 callsubr
          -6 callsubr
          144.02000427246094 -185 hhcurveto
          -190.02000427246094 245 callsubr
          -138.02000427246094 269 callgsubr
          102 callsubr
          546 hmoveto
          -132.02000427246094 -38 callsubr
          -92 -99 -131 hhcurveto
          -122 -94 103.02000427246094 128 3 hvcurveto
          129.99000549316406 68 callsubr
          92.02000427246094 98 128.99000549316406 hhcurveto
          123 95 -98 -129.99000549316406 -3 hvcurveto
          endchar
        </CharString>
        <CharString name="dieresis">
          -301 1409.979995727539 213 hstem
          123 callgsubr
          -59 callsubr
          218.00999450683594 244 callgsubr
          123 callgsubr
          222 callgsubr
          115 callsubr
          3 256 callgsubr
          421 hmoveto
          140 callsubr
          32 callsubr
          endchar
        </CharString>
        <CharString name="dieresis.cap">
          -303 1720.990005493164 121 callsubr
          87 201.99000549316406 291 callsubr
          vstem
          87 1818.990005493164 rmoveto
          -57 -3 39 -41 49 hhcurveto
          107 callsubr
          68 callsubr
          -34 40 -59.99000549316406 hhcurveto
          -23 callsubr
          -52 callgsubr
          -51 -65 -4 hvcurveto
          419 hmoveto
          -58 -1 -24 callgsubr
          -40 49 hhcurveto
          62 51 118 callgsubr
          4 37 callsubr
          2 callsubr
          hvcurveto
          endchar
        </CharString>
        <CharString name="divide">
          228 276.99000549316406 95 callgsubr
          217.00999450683594 122 213.989990234375 95 callgsubr
          hstemhm
          624.9799957275391 224 hintmask 00000000
          hintmask 11110000
          624.9900054931641 1152 rmoveto
          -67.02000427246094 -8 298 callgsubr
          -35 -7 callgsubr
          hhcurveto
          59 66.00999450683594 45 74.02000427246094 8 hvcurveto
          58 112 callgsubr
          -27 63 callsubr
          -71 hhcurveto
          -58 -67.99000549316406 -47 -70.97999572753906 -8.009994506835938 hvcurveto
          -368 -316.00999450683594 rmoveto
          -13 callsubr
          -122 rlineto
          868.9900054931641 hlineto
          14.009994506835938 122 rlineto
          -869.0099945068359 hlineto
          273 -457.00999450683594 rmoveto
          146 callsubr
          186 callsubr
          44 -36 55 hhcurveto
          59.99000549316406 229 callgsubr
          45 74 -41 callgsubr
          hvcurveto
          58 -28 callsubr
          187 callsubr
          43 -71 hhcurveto
          73 callsubr
          -74 callgsubr
          -48 -70 -8 hvcurveto
          endchar
        </CharString>
        <CharString name="dollar">
          94 -229.99000549316406 326.97999572753906 -115.989990234375 116 1332.990005493164 111 -111 298.97999572753906 hstemhm
          285.97999572753906 -13 callgsubr
          264 callsubr
          155.99000549316406 hintmask 01101100
          753.9900054931641 1430 rmoveto
          63 callgsubr
          123 -28 -56 57 hvcurveto
          48 115 -40 29 -77 -42 callsubr
          -140.97999572753906 12 rlinecurve
          hintmask 01011100
          268 callsubr
          187.99000549316406 rlineto
          -6 callsubr
          hlineto
          -30 -186 -238 -16 -176 -141 5 -235.99000549316406 rlinecurve
          -53 callsubr
          -230 182.99000549316406 -121 148 -95.99000549316406 rrcurveto
          156 -101.00999450683594 87 -89 -139 vvcurveto
          -193 -174 88 callsubr
          -184 -145.02000427246094 -65 callsubr
          54 40 -37 vhcurveto
          -41.97999572753906 -123 38.99000549316406 -32 128 -43.99000549316406 145 -11 rlinecurve
          hintmask 10101100
          -34 -210.99000549316406 rlineto
          -40 callsubr
          hlineto
          35 211.99000549316406 259.00999450683594 23.979995727539062 187.99000549316406 147 -5 258 rlinecurve
          -4 208 -164 111 -142 93 -162 107.00999450683594 -117 -52 callsubr
          6 181 rrcurveto
          hintmask 01101100
          200 5.0200042724609375 199 callsubr
          41 123 hhcurveto
          endchar
        </CharString>
        <CharString name="dong">
          221 134.97999572753906 155.99000549316406 957.0099945068359 160 286.010009765625 43 hstem
          1 callgsubr
          1330.990005493164 vstem
          988 290.97999572753906 rmoveto
          214 callgsubr
          hlineto
          5 callsubr
          -1 11.020004272460938 11 -12 callsubr
          -88 callsubr
          28 7 55 hvcurveto
          -39 -42 -94 -70 -180 hhcurveto
          -199.99000549316406 -163 116.02000427246094 244.99000549316406 322 213 274 360 162 callsubr
          63 -26 -16 133 callgsubr
          hvcurveto
          69 callgsubr
          148 7 54 rlineto
          -270 hlineto
          17 -82 callsubr
          rlineto
          268 hlineto
          24 173 rlineto
          145 hlineto
          -23 -173 rlineto
          237 hlineto
          -17 246 callsubr
          rlineto
          -235 hlineto
          -146.99000549316406 -1117.0299987792969 rlineto
          -637.0099945068359 393.02000427246094 rmoveto
          -182 91.00999450683594 -85 250 callsubr
          204 61 134 callgsubr
          23 23 vhcurveto
          -69 callsubr
          564.0200042724609 rlineto
          12.979995727539062 5 callsubr
          -63 24 -111 hhcurveto
          -264 -134 -214 -227 hvcurveto
          786 -683.9900054931641 rmoveto
          -1081 hlineto
          186 callgsubr
          134.97999572753906 rlineto
          1082 hlineto
          -21 -134.97999572753906 rlineto
          endchar
        </CharString>
        <CharString name="dotaccent">
          -723 1425.979995727539 214.00999450683594 hstem
          -35 callgsubr
          244 callgsubr
          -35 callgsubr
          1524.979995727539 rmoveto
          51 callgsubr
          -42 51 hhcurveto
          61 52 53 -61 callgsubr
          218 callgsubr
          -56 -52 -50 -65 102 callsubr
          endchar
        </CharString>
        <CharString name="dotaccent.cap">
          -721 1706.979995727539 213 hstem
          304 callgsubr
          201 vstem
          304 callgsubr
          -58 callsubr
          -56 219 callsubr
          endchar
        </CharString>
        <CharString name="dotlessi">
          -53 callgsubr
          hstem
          251 callsubr
          303 vstem
          286.97999572753906 1143.990005493164 -97 callsubr
          endchar
        </CharString>
        <CharString name="e">
          -38 callgsubr
          680 1155.990005493164 -107 callgsubr
        </CharString>
        <CharString name="eacute">
          -38 callgsubr
          548.9900054931641 223 callgsubr
          -71 callgsubr
          -115 239 callgsubr
          131 97 callsubr
          -107 callgsubr
        </CharString>
        <CharString name="ebreve">
          -62 callgsubr
          152.010009765625 -22 callgsubr
          289 callsubr
          7 callsubr
          104 357.989990234375 149 -80.989990234375 99 hintmask 11111110
          348 1629.979995727539 rmoveto
          184 callgsubr
          208 vhcurveto
          hintmask 11111101
          157 callsubr
          16.020004272460938 71 callgsubr
          -48 106 95 -11 hvcurveto
          -38 callsubr
          10 -1 12 -28 callsubr
          vvcurveto
          -103 hlineto
          hintmask 11111110
          -1 -6 0 -55 callsubr
          -6 vvcurveto
          332 -473.99000549316406 -107 callgsubr
        </CharString>
        <CharString name="ecaron">
          -62 callgsubr
          129.010009765625 116 hstem
          -8 callsubr
          161.99000549316406 557.9999847412109 149 vstem
          264 callgsubr
          21 callgsubr
          322 -456.99000549316406 -107 callgsubr
        </CharString>
        <CharString name="ecircumflex">
          -38 callgsubr
          329.99000549316406 1333.990005493164 rmoveto
          59 -59 298 callsubr
          169 callsubr
          -60 callgsubr
          rlineto
          350 -178 -107 callgsubr
        </CharString>
        <CharString name="edieresis">
          -62 callgsubr
          254 213 289 callsubr
          102.99998474121094 300 callgsubr
          187 callgsubr
          -59 callsubr
          -168.99000549316406 149 hintmask 11111101
          354.97999572753906 222 callgsubr
          140 callsubr
          -19 callgsubr
          102 callsubr
          hintmask 11111110
          421.00999450683594 hmoveto
          115 callsubr
          201 callgsubr
          256 callgsubr
          hintmask 11111101
          -95.99000549316406 -351.99000549316406 -107 callgsubr
        </CharString>
        <CharString name="edotaccent">
          -62 callgsubr
          273.010009765625 213.99000549316406 289 callsubr
          313.99998474121094 -59 callsubr
          41.00999450683594 149 hintmask 00000000
          hintmask 11111110
          565.9900054931641 1527.990005493164 rmoveto
          -57 -4 39 -68 callsubr
          -3 hvcurveto
          hintmask 11101010
          232 callgsubr
          -372 -107 callgsubr
        </CharString>
        <CharString name="egrave">
          -38 callgsubr
          286.97999572753906 1600 rmoveto
          193 callsubr
          65 55 273 callsubr
          393.00999450683594 -444.00999450683594 -107 callgsubr
        </CharString>
        <CharString name="eight">
          139 -17 104 1382.990005493164 99 hstemhm
          97 callgsubr
          160.99000549316406 230 callgsubr
          152.99000549316406 450.00999450683594 163 -80 270 callsubr
          hintmask 00000000
          hintmask 11010100
          517 820 rmoveto
          hintmask 11101000
          -190.02000427246094 -82 -206.99000549316406 -168 -222 vvcurveto
          -247 222 -117.97999572753906 204 280.97999572753906 235 155.99000549316406 262 170.99000549316406 -154 133 -145.99000549316406 100 vhcurveto
          hintmask 11010100
          201 72 169 168 198 vvcurveto
          202 -163 124 -211 -258.99000549316406 -203 -140 -258.00999450683594 -159.99000549316406 115 -109.02000427246094 106 -81.99000549316406 vhcurveto
          465 412 rmoveto
          -179 -163 -128 -136 -61 vhcurveto
          -124 88 -110 101 145 vvcurveto
          161 131 111 161 125.00999450683594 116 -78.00999450683594 -159.99000549316406 vhcurveto
          hintmask 11101000
          -409.00999450683594 -1145 rmoveto
          -183.99000549316406 -108.00999450683594 121 208 callgsubr
          hvcurveto
          3 186 171.99000549316406 143 141 -75 callsubr
          rrcurveto
          171.99000549316406 -115 130 -124 -151 vvcurveto
          -173 -154 246 callsubr
          -172 vhcurveto
          endchar
        </CharString>
        <CharString name="ellipsis">
          399 -17 95 callgsubr
          hstemhm
          106.99000549316406 211 292 210.97999572753906 hintmask 00000000
          hintmask 11100000
          227.97999572753906 203 rmoveto
          -58 -53.99000549316406 -48 -70 86 callgsubr
          -74 callgsubr
          109 callsubr
          111 callgsubr
          216 callsubr
          55 hhcurveto
          60 310 callgsubr
          112 callgsubr
          -24.990005493164062 43 263 callgsubr
          hhcurveto
          503.00999450683594 hmoveto
          -58 -54 -48 -70 109 callsubr
          hvcurveto
          -74 callgsubr
          -55 callsubr
          36 216 callsubr
          55 hhcurveto
          -35 callgsubr
          310 callgsubr
          8 -25 43 148 callgsubr
          hhcurveto
          502.99000549316406 hmoveto
          73 callsubr
          -53 -48 -70 -10.020004272460938 hvcurveto
          -74 callgsubr
          109 callsubr
          37 216 callsubr
          73 callgsubr
          hhcurveto
          61 57 42.97999572753906 75 10 hvcurveto
          59 -28 callsubr
          -25.009994506835938 43 -72 hhcurveto
          endchar
        </CharString>
        <CharString name="emacron">
          -62 callgsubr
          281.010009765625 139 callgsubr
          -8 callsubr
          161.99000549316406 557.9999847412109 149 vstem
          378.97999572753906 282 callsubr
          -4 46 callgsubr
          -510.02000427246094 hlineto
          301.02000427246094 -395 -107 callgsubr
        </CharString>
        <CharString name="emdash">
          918 711.9799957275391 121 hstem
          95 callgsubr
          1612.979995727539 vstem
          211 callsubr
          832.9799957275391 rmoveto
          -22 -121 rlineto
          1589.990005493164 hlineto
          23 121 rlineto
          -1590.990005493164 hlineto
          endchar
        </CharString>
        <CharString name="endash">
          425 711.9799957275391 121 hstem
          95 callgsubr
          1119.979995727539 vstem
          243 832.9799957275391 rmoveto
          -23 -121 rlineto
          1096.990005493164 hlineto
          23 121 rlineto
          -1096.990005493164 hlineto
          endchar
        </CharString>
        <CharString name="eng">
          84 -518 81 437 43 975.9799957275391 272 callsubr
          hstemhm
          908.9799957275391 152 hintmask 11101000
          835.9900054931641 173 callsubr
          -172 -186 -134 -150 -118.99000549316406 hvcurveto
          hintmask 11011000
          30 268 rlineto
          -141 hlineto
          -155 173 callgsubr
          97 712.9900054931641 rlineto
          hintmask 11101000
          -86 callgsubr
          88 callgsubr
          197 152 131.99000549316406 hhcurveto
          100 34 -52 callgsubr
          -108 -167.02000427246094 -67.99000549316406 -379 -42 -260 hvcurveto
          -246.99000549316406 -40 -76 -239 -204 hhcurveto
          -41 callsubr
          -50 -28 callsubr
          12.979995727539062 -24 hvcurveto
          184 callsubr
          -61.99000549316406 rlineto
          -24 22 62 -16 63 hhcurveto
          222.99000549316406 157 168 350 55 hvcurveto
          52 320 66.00999450683594 387.99000549316406 -88 callsubr
          155 rrcurveto
          207 -74 86 -151 vhcurveto
          endchar
        </CharString>
        <CharString name="eogonek">
          -68 -434.99000549316406 -82 callsubr
          306.00999450683594 238 callsubr
          hstem
          -8 callsubr
          161.99000549316406 108.99998474121094 148 301 149 vstem
          495.97999572753906 214 callsubr
          rmoveto
          -211.99000549316406 -7 callsubr
          186 155 8 hvcurveto
          231 12 481.02000427246094 120.02000427246094 331 vvcurveto
          141 -89 109 -190 -343 -237.02000427246094 -317.00999450683594 -397.99000549316406 -10 vhcurveto
          145 callgsubr
          -6 106 -231.97000122070312 289 hhcurveto
          45 42 6 10.970001220703125 40 hvcurveto
          -92 -57.97999572753906 -153 -111 -118 vvcurveto
          -59 78 callsubr
          74 callsubr
          -40 callsubr
          116 85.00999450683594 73 callgsubr
          -42 callsubr
          45 vhcurveto
          -40 12 callgsubr
          -49 -54 -21.020004272460938 -54.99000549316406 hhcurveto
          -51 -37 156 callgsubr
          258.00999450683594 206.99000549316406 -35 callgsubr
          169 callgsubr
          hvcurveto
          -4 -2 300 callsubr
          23 69 callgsubr
          24 132 callgsubr
          20 rlinecurve
          -43 86 rlineto
          -115 -114 -124.99000549316406 -55 -109.02000427246094 hhcurveto
          152 940.9900054931641 rmoveto
          252 callsubr
          -210 -332.99000549316406 -126 -225 -7 hvcurveto
          228 21.009994506835938 152.99000549316406 264.99000549316406 222 hhcurveto
          endchar
        </CharString>
        <CharString name="equal">
          -47 264 callgsubr
          171 callsubr
          181.99000549316406 986.9900054931641 rmoveto
          -13 -120.02000427246094 rlineto
          814.0200042724609 hlineto
          13.990005493164062 120.02000427246094 rlineto
          -815 hlineto
          -70 -509.00999450683594 rmoveto
          -13 -119.99000549316406 rlineto
          814.0200042724609 hlineto
          13.990005493164062 97 callgsubr
          rlineto
          -815 hlineto
          endchar
        </CharString>
        <CharString name="estimated">
          262 -83 callgsubr
          -8 callsubr
          556.9799957275391 106 529.010009765625 -8 callsubr
          hstem
          -82 callsubr
          227 725.989990234375 212 vstem
          1267 630.9900054931641 rmoveto
          11 51 0 64 86.02000427246094 vvcurveto
          -11 328.99000549316406 -238 200 -289.02000427246094 -5.0200042724609375 rrcurveto
          -415.99000549316406 296 callsubr
          -211 -286 -392 vvcurveto
          -430 231 -256.97999572753906 392 138 199 36.97999572753906 -35 callgsubr
          85 vhcurveto
          -29.990005493164062 87 rlineto
          -39 -69.02000427246094 -160.99000549316406 -56 -145 hhcurveto
          -179 -147 57 135 -87 hvcurveto
          365 927.0099945068359 vlineto
          -537.0099945068359 635 rmoveto
          171 104 -62 -87 -35 callgsubr
          hvcurveto
          -380 -726 327 vlineto
          138 86 142 64 162 hhcurveto
          endchar
        </CharString>
        <CharString name="eth">
          52 -17 215 callgsubr
          959.010009765625 63 callgsubr
          522.0099945068359 43 hstem
          87 callsubr
          160 664 151.97999572753906 vstem
          762 1565.979995727539 rmoveto
          -7 6 rlineto
          52 59 100 116 0 vvcurveto
          -76 69 rlineto
          0 70 callgsubr
          -116 -62 -68 vhcurveto
          -93 61 -121 58 -77 17.990005493164062 -34 -92 rcurveline
          74 -16 113 callgsubr
          -54 84 -59 -164 -172 rcurveline
          82 -67.99000549316406 160 179 139 -123 73.99000549316406 -128 28 -194.99000549316406 rlinecurve
          98 callgsubr
          8 callgsubr
          95 callsubr
          37 200 callgsubr
          hhcurveto
          -284.02000427246094 -272 -266 -452.02000427246094 -214 129 -239.97999572753906 271 375 201 406.97999572753906 478 277.02000427246094 -93 227 -209.99000549316406 193.99000549316406 hvcurveto
          132 -950.9900054931641 rmoveto
          -291 -39 -151 -236 -194 hhcurveto
          -170 185 callsubr
          166 175 318 -28 callgsubr
          300.00999450683594 248.02000427246094 186 79 -152 147 callgsubr
          8 hvcurveto
          -88 callsubr
          110 callgsubr
          -13 -103 109 callsubr
          -77 rrcurveto
          endchar
        </CharString>
        <CharString name="exclam">
          -489 -17 43 -43 95 callgsubr
          hstemhm
          130.99000549316406 439.99000549316406 -438.99000549316406 224.99000549316406 hintmask 10100000
          105 callsubr
          hintmask 01010000
          -132 39 callgsubr
          endchar
        </CharString>
        <CharString name="exclamdbl">
          88 -17 95 callgsubr
          hstemhm
          130.99000549316406 1015 -1014 224.99000549316406 350.00999450683594 224.99000549316406 hintmask 11000000
          105 callsubr
          575 hmoveto
          -163 -1290 rlineto
          97 callgsubr
          hlineto
          215.02000427246094 1290 rlineto
          -172 hlineto
          hintmask 10110000
          -706.9900054931641 39 callgsubr
          575 hmoveto
          -65 -61 -48 -70 109 callsubr
          hvcurveto
          -74 callgsubr
          -9 44 216 callsubr
          54 hhcurveto
          266 callsubr
          57 42.97999572753906 75 11 hvcurveto
          59 -28 callsubr
          274 callsubr
          endchar
        </CharString>
        <CharString name="exclamdown">
          -489 1140.979995727539 220.00999450683594 hstemhm
          297.97999572753906 225 hintmask 00000000
          hintmask 11000000
          387.99000549316406 1140.979995727539 rmoveto
          65 -35 callgsubr
          48 70 9.009994506835938 hvcurveto
          -61 callgsubr
          -41 callgsubr
          -43.99000549316406 35 -54 hhcurveto
          -68 147 callgsubr
          -43 -75 -11 hvcurveto
          -59 186 callsubr
          163 callgsubr
          -43 72 hhcurveto
          -131.99000549316406 -1574.9700012207031 rmoveto
          162.97999572753906 1289.9700012207031 rlineto
          -119.99000549316406 hlineto
          -215 -1289.9700012207031 rlineto
          172.02000427246094 hlineto
          endchar
        </CharString>
</ttFont>
